<svg width="750" height="298" viewBox="0 0 750 298" fill="none" xmlns="http://www.w3.org/2000/svg">
<g id="asterisk_layout">
<g id="pressed">
<g id="S-">
<path id="top_key" d="M4 117.5H38C39.933 117.5 41.5 119.067 41.5 121V178C41.5 189.322 32.3218 198.5 21 198.5C9.67816 198.5 0.5 189.322 0.5 178V121C0.500001 119.067 2.067 117.5 4 117.5Z" fill="#55C46D" stroke="black"/>
<path id="S" d="M25.1992 151C25.5195 151 25.7461 151.059 25.8789 151.176C26.0117 151.293 26.0781 151.488 26.0781 151.762V154.457C26.0781 154.73 26.0117 154.926 25.8789 155.043C25.7461 155.16 25.5195 155.219 25.1992 155.219C24.9023 155.219 24.6992 155.117 24.5898 154.914C24.2148 154.203 23.6875 153.664 23.0078 153.297C22.3281 152.922 21.5547 152.734 20.6875 152.734C19.8281 152.734 19.1602 152.934 18.6836 153.332C18.2148 153.73 17.9805 154.266 17.9805 154.938C17.9805 155.258 18.0625 155.527 18.2266 155.746C18.3906 155.965 18.625 156.152 18.9297 156.309C19.2031 156.449 19.5234 156.566 19.8906 156.66C20.2578 156.746 20.75 156.848 21.3672 156.965C22.0391 157.098 22.5703 157.211 22.9609 157.305C23.3594 157.391 23.75 157.512 24.1328 157.668C24.9141 157.988 25.5234 158.438 25.9609 159.016C26.4062 159.586 26.6289 160.359 26.6289 161.336C26.6289 162.148 26.4375 162.863 26.0547 163.48C25.6719 164.09 25.1055 164.566 24.3555 164.91C23.6133 165.254 22.7188 165.426 21.6719 165.426C20.8906 165.426 20.1641 165.285 19.4922 165.004C18.8281 164.715 18.25 164.297 17.7578 163.75V164.664C17.7578 164.938 17.6914 165.133 17.5586 165.25C17.4258 165.367 17.1992 165.426 16.8789 165.426C16.5586 165.426 16.332 165.367 16.1992 165.25C16.0664 165.133 16 164.938 16 164.664V161.148C16 160.875 16.0664 160.68 16.1992 160.562C16.332 160.445 16.5586 160.387 16.8789 160.387C17.2148 160.387 17.4414 160.551 17.5586 160.879C17.8789 161.785 18.3867 162.48 19.082 162.965C19.7852 163.449 20.6484 163.691 21.6719 163.691C22.6719 163.691 23.4375 163.477 23.9688 163.047C24.5078 162.617 24.7773 162.047 24.7773 161.336C24.7773 160.844 24.6523 160.445 24.4023 160.141C24.1602 159.828 23.8047 159.57 23.3359 159.367C23.0391 159.234 22.7148 159.129 22.3633 159.051C22.0117 158.965 21.5312 158.859 20.9219 158.734C20.2812 158.609 19.7422 158.492 19.3047 158.383C18.875 158.273 18.4766 158.137 18.1094 157.973C17.4844 157.691 16.9961 157.312 16.6445 156.836C16.3008 156.352 16.1289 155.719 16.1289 154.938C16.1289 154.133 16.3203 153.434 16.7031 152.84C17.0938 152.246 17.6328 151.793 18.3203 151.48C19.0156 151.16 19.8047 151 20.6875 151C21.375 151 22.0391 151.133 22.6797 151.398C23.3203 151.664 23.8672 152.023 24.3203 152.477V151.762C24.3203 151.488 24.3867 151.293 24.5195 151.176C24.6523 151.059 24.8789 151 25.1992 151Z" fill="black"/>
<rect id="top_key_2" x="0.5" y="29.5" width="41" height="81" rx="3.5" fill="#55C46D" stroke="black"/>
<path id="S_2" d="M25.1992 63C25.5195 63 25.7461 63.0586 25.8789 63.1758C26.0117 63.293 26.0781 63.4883 26.0781 63.7617V66.457C26.0781 66.7305 26.0117 66.9258 25.8789 67.043C25.7461 67.1602 25.5195 67.2188 25.1992 67.2188C24.9023 67.2188 24.6992 67.1172 24.5898 66.9141C24.2148 66.2031 23.6875 65.6641 23.0078 65.2969C22.3281 64.9219 21.5547 64.7344 20.6875 64.7344C19.8281 64.7344 19.1602 64.9336 18.6836 65.332C18.2148 65.7305 17.9805 66.2656 17.9805 66.9375C17.9805 67.2578 18.0625 67.5273 18.2266 67.7461C18.3906 67.9648 18.625 68.1523 18.9297 68.3086C19.2031 68.4492 19.5234 68.5664 19.8906 68.6602C20.2578 68.7461 20.75 68.8477 21.3672 68.9648C22.0391 69.0977 22.5703 69.2109 22.9609 69.3047C23.3594 69.3906 23.75 69.5117 24.1328 69.668C24.9141 69.9883 25.5234 70.4375 25.9609 71.0156C26.4062 71.5859 26.6289 72.3594 26.6289 73.3359C26.6289 74.1484 26.4375 74.8633 26.0547 75.4805C25.6719 76.0898 25.1055 76.5664 24.3555 76.9102C23.6133 77.2539 22.7188 77.4258 21.6719 77.4258C20.8906 77.4258 20.1641 77.2852 19.4922 77.0039C18.8281 76.7148 18.25 76.2969 17.7578 75.75V76.6641C17.7578 76.9375 17.6914 77.1328 17.5586 77.25C17.4258 77.3672 17.1992 77.4258 16.8789 77.4258C16.5586 77.4258 16.332 77.3672 16.1992 77.25C16.0664 77.1328 16 76.9375 16 76.6641V73.1484C16 72.875 16.0664 72.6797 16.1992 72.5625C16.332 72.4453 16.5586 72.3867 16.8789 72.3867C17.2148 72.3867 17.4414 72.5508 17.5586 72.8789C17.8789 73.7852 18.3867 74.4805 19.082 74.9648C19.7852 75.4492 20.6484 75.6914 21.6719 75.6914C22.6719 75.6914 23.4375 75.4766 23.9688 75.0469C24.5078 74.6172 24.7773 74.0469 24.7773 73.3359C24.7773 72.8438 24.6523 72.4453 24.4023 72.1406C24.1602 71.8281 23.8047 71.5703 23.3359 71.3672C23.0391 71.2344 22.7148 71.1289 22.3633 71.0508C22.0117 70.9648 21.5312 70.8594 20.9219 70.7344C20.2812 70.6094 19.7422 70.4922 19.3047 70.3828C18.875 70.2734 18.4766 70.1367 18.1094 69.9727C17.4844 69.6914 16.9961 69.3125 16.6445 68.8359C16.3008 68.3516 16.1289 67.7188 16.1289 66.9375C16.1289 66.1328 16.3203 65.4336 16.7031 64.8398C17.0938 64.2461 17.6328 63.793 18.3203 63.4805C19.0156 63.1602 19.8047 63 20.6875 63C21.375 63 22.0391 63.1328 22.6797 63.3984C23.3203 63.6641 23.8672 64.0234 24.3203 64.4766V63.7617C24.3203 63.4883 24.3867 63.293 24.5195 63.1758C24.6523 63.0586 24.8789 63 25.1992 63Z" fill="black"/>
</g>
<g id="K-">
<path id="top_key_3" d="M64 117.5H98C99.933 117.5 101.5 119.067 101.5 121V178C101.5 189.322 92.3218 198.5 81 198.5C69.6782 198.5 60.5 189.322 60.5 178V121C60.5 119.067 62.067 117.5 64 117.5Z" fill="#55C46D" stroke="black"/>
<path id="K" d="M85.8945 151C86.1602 151 86.3477 151.062 86.457 151.188C86.5742 151.305 86.6328 151.508 86.6328 151.797C86.6328 152.086 86.5742 152.293 86.457 152.418C86.3477 152.535 86.1602 152.594 85.8945 152.594H85.1797L80.2695 157.34C80.332 157.332 80.4258 157.328 80.5508 157.328C81.5742 157.328 82.3906 157.719 83 158.5C83.2422 158.812 83.4531 159.164 83.6328 159.555C83.8203 159.945 84.0234 160.434 84.2422 161.02C84.2734 161.098 84.3516 161.305 84.4766 161.641C84.6094 161.969 84.7383 162.246 84.8633 162.473C85.168 163.035 85.5195 163.316 85.918 163.316H86.2461C86.5117 163.316 86.6992 163.379 86.8086 163.504C86.9258 163.621 86.9844 163.824 86.9844 164.113C86.9844 164.402 86.9258 164.609 86.8086 164.734C86.6992 164.852 86.5117 164.91 86.2461 164.91H85.2852C84.4961 164.91 83.8242 164.367 83.2695 163.281C83.0742 162.891 82.8438 162.355 82.5781 161.676C82.3984 161.199 82.2344 160.797 82.0859 160.469C81.9375 160.141 81.7734 159.848 81.5938 159.59C81.4062 159.324 81.168 159.121 80.8789 158.98C80.5977 158.84 80.2773 158.77 79.918 158.77C79.5898 158.77 79.2734 158.828 78.9688 158.945C78.6641 159.062 78.3945 159.234 78.1602 159.461L77.8086 159.801V163.316H79.707C79.9727 163.316 80.1602 163.379 80.2695 163.504C80.3867 163.621 80.4453 163.824 80.4453 164.113C80.4453 164.402 80.3867 164.609 80.2695 164.734C80.1602 164.852 79.9727 164.91 79.707 164.91H74.7383C74.4727 164.91 74.2812 164.852 74.1641 164.734C74.0547 164.609 74 164.402 74 164.113C74 163.824 74.0547 163.621 74.1641 163.504C74.2812 163.379 74.4727 163.316 74.7383 163.316H76.0508V152.594H74.7383C74.4727 152.594 74.2812 152.535 74.1641 152.418C74.0547 152.293 74 152.086 74 151.797C74 151.508 74.0547 151.305 74.1641 151.188C74.2812 151.062 74.4727 151 74.7383 151H78.8867C79.1523 151 79.3398 151.062 79.4492 151.188C79.5664 151.305 79.625 151.508 79.625 151.797C79.625 152.086 79.5664 152.293 79.4492 152.418C79.3398 152.535 79.1523 152.594 78.8867 152.594H77.8086V157.621L82.9414 152.594H82.0977C81.832 152.594 81.6406 152.535 81.5234 152.418C81.4141 152.293 81.3594 152.086 81.3594 151.797C81.3594 151.508 81.4141 151.305 81.5234 151.188C81.6406 151.062 81.832 151 82.0977 151H85.8945Z" fill="black"/>
</g>
<g id="W-">
<path id="top_key_4" d="M122 117.5H156C157.933 117.5 159.5 119.067 159.5 121V178C159.5 189.322 150.322 198.5 139 198.5C127.678 198.5 118.5 189.322 118.5 178V121C118.5 119.067 120.067 117.5 122 117.5Z" fill="#55C46D" stroke="black"/>
<path id="W" d="M145.887 151C146.152 151 146.34 151.062 146.449 151.188C146.566 151.305 146.625 151.508 146.625 151.797C146.625 152.086 146.566 152.293 146.449 152.418C146.34 152.535 146.152 152.594 145.887 152.594H145.254L143.637 164.406C143.598 164.688 143.496 164.883 143.332 164.992C143.176 165.109 142.941 165.168 142.629 165.168C141.988 165.168 141.59 164.914 141.434 164.406L139.266 157.598L137.074 164.406C136.91 164.914 136.504 165.168 135.855 165.168C135.551 165.168 135.316 165.109 135.152 164.992C134.996 164.875 134.902 164.68 134.871 164.406L133.312 152.594H132.738C132.473 152.594 132.281 152.535 132.164 152.418C132.055 152.293 132 152.086 132 151.797C132 151.508 132.055 151.305 132.164 151.188C132.281 151.062 132.473 151 132.738 151H136.77C137.035 151 137.223 151.062 137.332 151.188C137.449 151.305 137.508 151.508 137.508 151.797C137.508 152.086 137.449 152.293 137.332 152.418C137.223 152.535 137.035 152.594 136.77 152.594H135.059L136.23 161.98L138.434 155.09C138.543 154.723 138.824 154.539 139.277 154.539C139.527 154.539 139.719 154.578 139.852 154.656C139.992 154.734 140.086 154.852 140.133 155.008L142.324 161.98L143.543 152.594H142.09C141.824 152.594 141.633 152.535 141.516 152.418C141.406 152.293 141.352 152.086 141.352 151.797C141.352 151.508 141.406 151.305 141.516 151.188C141.633 151.062 141.824 151 142.09 151H145.887Z" fill="black"/>
</g>
<g id="R-">
<path id="top_key_5" d="M182 117.5H216C217.933 117.5 219.5 119.067 219.5 121V178C219.5 189.322 210.322 198.5 199 198.5C187.678 198.5 178.5 189.322 178.5 178V121C178.5 119.067 180.067 117.5 182 117.5Z" fill="#55C46D" stroke="black"/>
<path id="R" d="M198.668 151C199.645 151 200.48 151.164 201.176 151.492C201.879 151.82 202.41 152.281 202.77 152.875C203.137 153.469 203.32 154.16 203.32 154.949C203.32 155.84 203.031 156.594 202.453 157.211C201.875 157.828 201.082 158.25 200.074 158.477C200.512 158.648 200.875 158.926 201.164 159.309C201.406 159.629 201.613 159.949 201.785 160.27C201.957 160.582 202.148 160.969 202.359 161.43C202.578 161.906 202.746 162.254 202.863 162.473C203.168 163.035 203.52 163.316 203.918 163.316H204.246C204.512 163.316 204.699 163.379 204.809 163.504C204.926 163.621 204.984 163.824 204.984 164.113C204.984 164.402 204.926 164.609 204.809 164.734C204.699 164.852 204.512 164.91 204.246 164.91H203.402C202.934 164.91 202.535 164.789 202.207 164.547C201.887 164.297 201.574 163.875 201.27 163.281C201.098 162.938 200.887 162.484 200.637 161.922C200.402 161.406 200.211 161.008 200.062 160.727C199.922 160.438 199.75 160.152 199.547 159.871C199.312 159.543 199.031 159.297 198.703 159.133C198.375 158.961 197.98 158.875 197.52 158.875H195.926V163.316H197.449C197.715 163.316 197.902 163.379 198.012 163.504C198.129 163.621 198.188 163.824 198.188 164.113C198.188 164.402 198.129 164.609 198.012 164.734C197.902 164.852 197.715 164.91 197.449 164.91H192.738C192.473 164.91 192.281 164.852 192.164 164.734C192.055 164.609 192 164.402 192 164.113C192 163.824 192.055 163.621 192.164 163.504C192.281 163.379 192.473 163.316 192.738 163.316H194.168V152.594H192.738C192.473 152.594 192.281 152.535 192.164 152.418C192.055 152.293 192 152.086 192 151.797C192 151.508 192.055 151.305 192.164 151.188C192.281 151.062 192.473 151 192.738 151H198.668ZM195.926 157.281H198.305C200.414 157.281 201.469 156.504 201.469 154.949C201.469 154.199 201.203 153.621 200.672 153.215C200.141 152.801 199.391 152.594 198.422 152.594H195.926V157.281Z" fill="black"/>
</g>
<g id="A-">
<g id="top_key_6">
<mask id="path-11-inside-1_3_2" fill="white">
<path d="M205.496 215.501C207.705 215.501 209.496 217.291 209.496 219.501V293.501C209.496 295.71 207.705 297.501 205.496 297.501H171.496C169.287 297.501 167.496 295.71 167.496 293.501V219.501C167.496 217.292 169.287 215.501 171.496 215.501H205.496Z"/>
</mask>
<path d="M205.496 215.501C207.705 215.501 209.496 217.291 209.496 219.501V293.501C209.496 295.71 207.705 297.501 205.496 297.501H171.496C169.287 297.501 167.496 295.71 167.496 293.501V219.501C167.496 217.292 169.287 215.501 171.496 215.501H205.496Z" fill="#FFDB6C" stroke="black" stroke-width="2" mask="url(#path-11-inside-1_3_2)"/>
</g>
<path id="A" d="M188.879 249.501C189.192 249.501 189.442 249.563 189.629 249.688C189.824 249.805 189.969 249.997 190.063 250.262L194.199 261.817H194.914C195.18 261.817 195.367 261.88 195.477 262.005C195.594 262.122 195.653 262.325 195.653 262.614C195.653 262.903 195.594 263.11 195.477 263.235C195.367 263.352 195.18 263.411 194.914 263.411H190.766C190.5 263.411 190.309 263.352 190.192 263.235C190.082 263.11 190.028 262.903 190.028 262.614C190.028 262.325 190.082 262.122 190.192 262.005C190.309 261.88 190.5 261.817 190.766 261.817H192.348L191.387 259.028H185.703L184.731 261.817H186.149C186.414 261.817 186.602 261.88 186.711 262.005C186.828 262.122 186.887 262.325 186.887 262.614C186.887 262.903 186.828 263.11 186.711 263.235C186.602 263.352 186.414 263.411 186.149 263.411H182.235C181.969 263.411 181.778 263.352 181.66 263.235C181.551 263.11 181.496 262.903 181.496 262.614C181.496 262.325 181.551 262.122 181.66 262.005C181.778 261.88 181.969 261.817 182.235 261.817H182.891L186.77 251.094H184.578C184.313 251.094 184.121 251.036 184.004 250.919C183.895 250.794 183.84 250.587 183.84 250.297C183.84 250.008 183.895 249.805 184.004 249.688C184.121 249.563 184.313 249.501 184.578 249.501H188.879ZM188.446 251.094L186.254 257.434H190.848L188.668 251.094H188.446Z" fill="black"/>
</g>
<g id="-E">
<g id="top_key_7">
<mask id="path-13-inside-2_3_2" fill="white">
<path d="M470.079 216.001C472.288 216.001 474.079 217.791 474.079 220.001V294.001C474.079 296.21 472.288 298.001 470.079 298.001H436.079C433.87 298.001 432.079 296.21 432.079 294.001V220.001C432.079 217.792 433.87 216.001 436.079 216.001H470.079Z"/>
</mask>
<path d="M470.079 216.001C472.288 216.001 474.079 217.791 474.079 220.001V294.001C474.079 296.21 472.288 298.001 470.079 298.001H436.079C433.87 298.001 432.079 296.21 432.079 294.001V220.001C432.079 217.792 433.87 216.001 436.079 216.001H470.079Z" fill="#FFDB6C" stroke="black" stroke-width="2" mask="url(#path-13-inside-2_3_2)"/>
</g>
<path id="E" d="M457.091 257.462C457.411 257.462 457.638 257.52 457.77 257.637C457.903 257.755 457.97 257.95 457.97 258.223V261.704C457.97 261.993 457.911 262.2 457.794 262.325C457.684 262.442 457.497 262.501 457.231 262.501H446.755C446.489 262.501 446.298 262.442 446.181 262.325C446.071 262.2 446.017 261.993 446.017 261.704C446.017 261.415 446.071 261.212 446.181 261.094C446.298 260.969 446.489 260.907 446.755 260.907H447.95V250.184H446.755C446.489 250.184 446.298 250.126 446.181 250.008C446.071 249.883 446.017 249.676 446.017 249.387C446.017 249.098 446.071 248.895 446.181 248.778C446.298 248.653 446.489 248.59 446.755 248.59H456.997C457.263 248.59 457.45 248.653 457.559 248.778C457.677 248.895 457.735 249.098 457.735 249.387V252.364C457.735 252.637 457.669 252.833 457.536 252.95C457.403 253.067 457.177 253.126 456.856 253.126C456.536 253.126 456.309 253.067 456.177 252.95C456.044 252.833 455.977 252.637 455.977 252.364V250.184H449.708V254.532H452.731V253.465C452.731 253.192 452.79 252.997 452.907 252.88C453.032 252.762 453.251 252.704 453.563 252.704C453.876 252.704 454.091 252.762 454.208 252.88C454.333 252.997 454.395 253.192 454.395 253.465V257.192C454.395 257.465 454.333 257.661 454.208 257.778C454.091 257.895 453.876 257.954 453.563 257.954C453.251 257.954 453.032 257.895 452.907 257.778C452.79 257.661 452.731 257.465 452.731 257.192V256.126H449.708V260.907H456.212V258.223C456.212 257.95 456.278 257.755 456.411 257.637C456.544 257.52 456.77 257.462 457.091 257.462Z" fill="black"/>
</g>
<g id="O-">
<g id="top_key_8">
<mask id="path-15-inside-3_3_2" fill="white">
<path d="M257.496 215.501C259.705 215.501 261.496 217.292 261.496 219.501V293.501C261.496 295.71 259.705 297.501 257.496 297.501H223.496C221.287 297.501 219.496 295.71 219.496 293.501V219.501C219.496 217.292 221.287 215.501 223.496 215.501H257.496Z"/>
</mask>
<path d="M257.496 215.501C259.705 215.501 261.496 217.292 261.496 219.501V293.501C261.496 295.71 259.705 297.501 257.496 297.501H223.496C221.287 297.501 219.496 295.71 219.496 293.501V219.501C219.496 217.292 221.287 215.501 223.496 215.501H257.496Z" fill="#FFDB6C" stroke="black" stroke-width="2" mask="url(#path-15-inside-3_3_2)"/>
</g>
<path id="O" d="M240.66 249.501C241.879 249.501 242.953 249.801 243.883 250.403C244.821 251.005 245.543 251.852 246.051 252.946C246.567 254.032 246.824 255.29 246.824 256.719C246.824 258.149 246.567 259.411 246.051 260.505C245.543 261.59 244.821 262.434 243.883 263.036C242.953 263.63 241.879 263.926 240.66 263.926C239.442 263.926 238.364 263.63 237.426 263.036C236.496 262.434 235.774 261.59 235.258 260.505C234.75 259.411 234.496 258.149 234.496 256.719C234.496 255.29 234.75 254.032 235.258 252.946C235.774 251.852 236.496 251.005 237.426 250.403C238.364 249.801 239.442 249.501 240.66 249.501ZM240.66 251.235C239.801 251.235 239.043 251.458 238.387 251.903C237.739 252.348 237.235 252.985 236.875 253.813C236.524 254.641 236.348 255.61 236.348 256.719C236.348 257.829 236.524 258.798 236.875 259.626C237.235 260.446 237.739 261.079 238.387 261.524C239.043 261.969 239.801 262.192 240.66 262.192C241.52 262.192 242.274 261.969 242.922 261.524C243.578 261.079 244.082 260.446 244.434 259.626C244.793 258.798 244.973 257.829 244.973 256.719C244.973 255.61 244.793 254.641 244.434 253.813C244.082 252.985 243.578 252.348 242.922 251.903C242.274 251.458 241.52 251.235 240.66 251.235Z" fill="black"/>
</g>
<g id="-U">
<g id="top_key_9">
<mask id="path-17-inside-4_3_2" fill="white">
<path d="M522.079 216.001C524.288 216.001 526.079 217.792 526.079 220.001V294.001C526.079 296.21 524.288 298.001 522.079 298.001H488.079C485.87 298.001 484.079 296.21 484.079 294.001V220.001C484.079 217.792 485.87 216.001 488.079 216.001H522.079Z"/>
</mask>
<path d="M522.079 216.001C524.288 216.001 526.079 217.792 526.079 220.001V294.001C526.079 296.21 524.288 298.001 522.079 298.001H488.079C485.87 298.001 484.079 296.21 484.079 294.001V220.001C484.079 217.792 485.87 216.001 488.079 216.001H522.079Z" fill="#FFDB6C" stroke="black" stroke-width="2" mask="url(#path-17-inside-4_3_2)"/>
</g>
<path id="U" d="M510.091 249.501C510.356 249.501 510.544 249.563 510.653 249.688C510.77 249.805 510.829 250.008 510.829 250.298C510.829 250.587 510.77 250.794 510.653 250.919C510.544 251.036 510.356 251.094 510.091 251.094H509.364V258.805C509.364 260.438 508.934 261.657 508.075 262.462C507.224 263.266 506.017 263.669 504.454 263.669C502.892 263.669 501.681 263.266 500.821 262.462C499.97 261.657 499.544 260.438 499.544 258.805V251.094H498.817C498.552 251.094 498.36 251.036 498.243 250.919C498.134 250.794 498.079 250.587 498.079 250.298C498.079 250.008 498.134 249.805 498.243 249.688C498.36 249.563 498.552 249.501 498.817 249.501H502.614C502.88 249.501 503.067 249.563 503.177 249.688C503.294 249.805 503.352 250.008 503.352 250.298C503.352 250.587 503.294 250.794 503.177 250.919C503.067 251.036 502.88 251.094 502.614 251.094H501.302V258.571C501.302 259.766 501.556 260.626 502.063 261.149C502.571 261.673 503.368 261.934 504.454 261.934C505.54 261.934 506.337 261.673 506.845 261.149C507.352 260.626 507.606 259.766 507.606 258.571V251.094H506.294C506.028 251.094 505.837 251.036 505.72 250.919C505.61 250.794 505.556 250.587 505.556 250.298C505.556 250.008 505.61 249.805 505.72 249.688C505.837 249.563 506.028 249.501 506.294 249.501H510.091Z" fill="black"/>
</g>
<g id="T-">
<rect id="top_key_10" x="60.5" y="29.5" width="41" height="81" rx="3.5" fill="#55C46D" stroke="black"/>
<path id="T" d="M86.793 63C87.0586 63 87.2461 63.0625 87.3555 63.1875C87.4727 63.3047 87.5312 63.5078 87.5312 63.7969V68.2148C87.5312 68.4883 87.4648 68.6836 87.332 68.8008C87.1992 68.918 86.9727 68.9766 86.6523 68.9766C86.332 68.9766 86.1055 68.918 85.9727 68.8008C85.8398 68.6836 85.7734 68.4883 85.7734 68.2148V64.5938H82.6445V75.3164H85.4102C85.6758 75.3164 85.8633 75.3789 85.9727 75.5039C86.0898 75.6211 86.1484 75.8242 86.1484 76.1133C86.1484 76.4023 86.0898 76.6094 85.9727 76.7344C85.8633 76.8516 85.6758 76.9102 85.4102 76.9102H78.1211C77.8555 76.9102 77.6641 76.8516 77.5469 76.7344C77.4375 76.6094 77.3828 76.4023 77.3828 76.1133C77.3828 75.8242 77.4375 75.6211 77.5469 75.5039C77.6641 75.3789 77.8555 75.3164 78.1211 75.3164H80.8867V64.5938H77.7578V68.2148C77.7578 68.4883 77.6914 68.6836 77.5586 68.8008C77.4258 68.918 77.1992 68.9766 76.8789 68.9766C76.5586 68.9766 76.332 68.918 76.1992 68.8008C76.0664 68.6836 76 68.4883 76 68.2148V63.7969C76 63.5078 76.0547 63.3047 76.1641 63.1875C76.2812 63.0625 76.4727 63 76.7383 63H86.793Z" fill="black"/>
</g>
<g id="#">
<rect id="number_key_2" x="0.5" y="5.5" width="219" height="17" rx="3.5" fill="#5EB2DA" stroke="black"/>
<rect id="number_key_1" x="473.5" y="5.5" width="218" height="17" rx="3.5" fill="#5EB2DA" stroke="black"/>
<path id="#" d="M116.246 11.0312C116.512 11.0312 116.699 11.0977 116.809 11.2305C116.926 11.3555 116.984 11.5703 116.984 11.875C116.984 12.1797 116.926 12.3984 116.809 12.5312C116.699 12.6562 116.512 12.7188 116.246 12.7188H113.973L113.223 15.5898H115.426C115.691 15.5898 115.879 15.6562 115.988 15.7891C116.105 15.9141 116.164 16.1289 116.164 16.4336C116.164 16.7383 116.105 16.957 115.988 17.0898C115.879 17.2148 115.691 17.2773 115.426 17.2773H112.777L111.805 21.0391C111.773 21.1641 111.695 21.2578 111.57 21.3203C111.453 21.3906 111.32 21.4258 111.172 21.4258C110.953 21.4258 110.758 21.3672 110.586 21.25C110.414 21.1328 110.328 20.9805 110.328 20.793C110.328 20.7695 110.336 20.7188 110.352 20.6406L111.23 17.2773H108.16L107.188 21.0391C107.156 21.1641 107.078 21.2578 106.953 21.3203C106.836 21.3906 106.703 21.4258 106.555 21.4258C106.336 21.4258 106.141 21.3672 105.969 21.25C105.797 21.1328 105.711 20.9805 105.711 20.793C105.711 20.7695 105.719 20.7188 105.734 20.6406L106.613 17.2773H104.738C104.473 17.2773 104.281 17.2148 104.164 17.0898C104.055 16.957 104 16.7383 104 16.4336C104 16.1289 104.055 15.9141 104.164 15.7891C104.281 15.6562 104.473 15.5898 104.738 15.5898H107.047L107.797 12.7188H105.559C105.293 12.7188 105.102 12.6562 104.984 12.5312C104.875 12.3984 104.82 12.1797 104.82 11.875C104.82 11.5703 104.875 11.3555 104.984 11.2305C105.102 11.0977 105.293 11.0312 105.559 11.0312H108.23L109.18 7.38672C109.211 7.26172 109.285 7.16797 109.402 7.10547C109.527 7.03516 109.664 7 109.812 7C110.031 7 110.227 7.05859 110.398 7.17578C110.57 7.29297 110.656 7.44531 110.656 7.63281C110.656 7.65625 110.648 7.70703 110.633 7.78516L109.789 11.0312H112.848L113.797 7.38672C113.828 7.26172 113.902 7.16797 114.02 7.10547C114.145 7.03516 114.281 7 114.43 7C114.648 7 114.844 7.05859 115.016 7.17578C115.188 7.29297 115.273 7.44531 115.273 7.63281C115.273 7.65625 115.266 7.70703 115.25 7.78516L114.406 11.0312H116.246ZM111.664 15.5898L112.414 12.7188H109.355L108.605 15.5898H111.664Z" fill="black"/>
<path id="#_2" d="M588.246 11.0312C588.512 11.0312 588.699 11.0977 588.809 11.2305C588.926 11.3555 588.984 11.5703 588.984 11.875C588.984 12.1797 588.926 12.3984 588.809 12.5312C588.699 12.6562 588.512 12.7188 588.246 12.7188H585.973L585.223 15.5898H587.426C587.691 15.5898 587.879 15.6562 587.988 15.7891C588.105 15.9141 588.164 16.1289 588.164 16.4336C588.164 16.7383 588.105 16.957 587.988 17.0898C587.879 17.2148 587.691 17.2773 587.426 17.2773H584.777L583.805 21.0391C583.773 21.1641 583.695 21.2578 583.57 21.3203C583.453 21.3906 583.32 21.4258 583.172 21.4258C582.953 21.4258 582.758 21.3672 582.586 21.25C582.414 21.1328 582.328 20.9805 582.328 20.793C582.328 20.7695 582.336 20.7188 582.352 20.6406L583.23 17.2773H580.16L579.188 21.0391C579.156 21.1641 579.078 21.2578 578.953 21.3203C578.836 21.3906 578.703 21.4258 578.555 21.4258C578.336 21.4258 578.141 21.3672 577.969 21.25C577.797 21.1328 577.711 20.9805 577.711 20.793C577.711 20.7695 577.719 20.7188 577.734 20.6406L578.613 17.2773H576.738C576.473 17.2773 576.281 17.2148 576.164 17.0898C576.055 16.957 576 16.7383 576 16.4336C576 16.1289 576.055 15.9141 576.164 15.7891C576.281 15.6562 576.473 15.5898 576.738 15.5898H579.047L579.797 12.7188H577.559C577.293 12.7188 577.102 12.6562 576.984 12.5312C576.875 12.3984 576.82 12.1797 576.82 11.875C576.82 11.5703 576.875 11.3555 576.984 11.2305C577.102 11.0977 577.293 11.0312 577.559 11.0312H580.23L581.18 7.38672C581.211 7.26172 581.285 7.16797 581.402 7.10547C581.527 7.03516 581.664 7 581.812 7C582.031 7 582.227 7.05859 582.398 7.17578C582.57 7.29297 582.656 7.44531 582.656 7.63281C582.656 7.65625 582.648 7.70703 582.633 7.78516L581.789 11.0312H584.848L585.797 7.38672C585.828 7.26172 585.902 7.16797 586.02 7.10547C586.145 7.03516 586.281 7 586.43 7C586.648 7 586.844 7.05859 587.016 7.17578C587.188 7.29297 587.273 7.44531 587.273 7.63281C587.273 7.65625 587.266 7.70703 587.25 7.78516L586.406 11.0312H588.246ZM583.664 15.5898L584.414 12.7188H581.355L580.605 15.5898H583.664Z" fill="black"/>
</g>
<g id="P-">
<rect id="top_key_11" x="118.5" y="29.5" width="41" height="81" rx="3.5" fill="#55C46D" stroke="black"/>
<path id="P" d="M139.148 63C140.188 63 141.078 63.1836 141.82 63.5508C142.562 63.918 143.125 64.4375 143.508 65.1094C143.898 65.7812 144.094 66.5586 144.094 67.4414C144.094 68.3242 143.898 69.0977 143.508 69.7617C143.125 70.418 142.562 70.9297 141.82 71.2969C141.078 71.6562 140.188 71.8359 139.148 71.8359H136.395V75.3164H139.207C139.473 75.3164 139.66 75.3789 139.77 75.5039C139.887 75.6211 139.945 75.8242 139.945 76.1133C139.945 76.4023 139.887 76.6094 139.77 76.7344C139.66 76.8516 139.473 76.9102 139.207 76.9102H132.738C132.473 76.9102 132.281 76.8516 132.164 76.7344C132.055 76.6094 132 76.4023 132 76.1133C132 75.8242 132.055 75.6211 132.164 75.5039C132.281 75.3789 132.473 75.3164 132.738 75.3164H134.637V64.5938H132.738C132.473 64.5938 132.281 64.5352 132.164 64.418C132.055 64.293 132 64.0859 132 63.7969C132 63.5078 132.055 63.3047 132.164 63.1875C132.281 63.0625 132.473 63 132.738 63H139.148ZM136.395 70.2422H138.902C139.988 70.2422 140.816 69.9961 141.387 69.5039C141.957 69.0117 142.242 68.3242 142.242 67.4414C142.242 66.543 141.953 65.8438 141.375 65.3438C140.805 64.8438 139.98 64.5938 138.902 64.5938H136.395V70.2422Z" fill="black"/>
</g>
<g id="H-">
<rect id="top_key_12" x="178.5" y="29.5" width="41" height="81" rx="3.5" fill="#55C46D" stroke="black"/>
<path id="H" d="M203.777 63C204.043 63 204.23 63.0625 204.34 63.1875C204.457 63.3047 204.516 63.5078 204.516 63.7969C204.516 64.0859 204.457 64.293 204.34 64.418C204.23 64.5352 204.043 64.5938 203.777 64.5938H202.934V75.3164H203.777C204.043 75.3164 204.23 75.3789 204.34 75.5039C204.457 75.6211 204.516 75.8242 204.516 76.1133C204.516 76.4023 204.457 76.6094 204.34 76.7344C204.23 76.8516 204.043 76.9102 203.777 76.9102H200.098C199.832 76.9102 199.641 76.8516 199.523 76.7344C199.414 76.6094 199.359 76.4023 199.359 76.1133C199.359 75.8242 199.414 75.6211 199.523 75.5039C199.641 75.3789 199.832 75.3164 200.098 75.3164H201.176V70.5352H195.34V75.3164H196.418C196.684 75.3164 196.871 75.3789 196.98 75.5039C197.098 75.6211 197.156 75.8242 197.156 76.1133C197.156 76.4023 197.098 76.6094 196.98 76.7344C196.871 76.8516 196.684 76.9102 196.418 76.9102H192.738C192.473 76.9102 192.281 76.8516 192.164 76.7344C192.055 76.6094 192 76.4023 192 76.1133C192 75.8242 192.055 75.6211 192.164 75.5039C192.281 75.3789 192.473 75.3164 192.738 75.3164H193.582V64.5938H192.738C192.473 64.5938 192.281 64.5352 192.164 64.418C192.055 64.293 192 64.0859 192 63.7969C192 63.5078 192.055 63.3047 192.164 63.1875C192.281 63.0625 192.473 63 192.738 63H196.418C196.684 63 196.871 63.0625 196.98 63.1875C197.098 63.3047 197.156 63.5078 197.156 63.7969C197.156 64.0859 197.098 64.293 196.98 64.418C196.871 64.5352 196.684 64.5938 196.418 64.5938H195.34V68.9414H201.176V64.5938H200.098C199.832 64.5938 199.641 64.5352 199.523 64.418C199.414 64.293 199.359 64.0859 199.359 63.7969C199.359 63.5078 199.414 63.3047 199.523 63.1875C199.641 63.0625 199.832 63 200.098 63H203.777Z" fill="black"/>
</g>
<g id="*">
<g id="asterisk_r">
<path id="key" d="M451 29.5H417C415.067 29.5 413.5 31.067 413.5 33V178C413.5 189.322 422.678 198.5 434 198.5C445.322 198.5 454.5 189.322 454.5 178V33C454.5 31.067 452.933 29.5 451 29.5Z" fill="#5EB2DA" stroke="black"/>
<g id="extend">
<path id="bar" d="M459 29.5H417C415.067 29.5 413.5 31.067 413.5 33V174C413.5 175.933 415.067 177.5 417 177.5H459C460.933 177.5 462.5 175.933 462.5 174V33C462.5 31.1273 461.029 29.5984 459.18 29.5049L459 29.5Z" fill="#5EB2DA" stroke="black"/>
<circle id="Ellipse 1" cx="20" cy="20" r="20" transform="matrix(-1 0 0 1 454 158)" fill="#5EB2DA"/>
</g>
</g>
<g id="asterisk_l">
<path id="key_2" d="M242 29.5H276C277.933 29.5 279.5 31.067 279.5 33V178C279.5 189.322 270.322 198.5 259 198.5C247.678 198.5 238.5 189.322 238.5 178V33C238.5 31.067 240.067 29.5 242 29.5Z" fill="#5EB2DA" stroke="black"/>
<g id="extend_2">
<path id="bar_2" d="M234 29.5H276C277.933 29.5 279.5 31.067 279.5 33V174C279.5 175.933 277.933 177.5 276 177.5H234C232.067 177.5 230.5 175.933 230.5 174V33C230.5 31.1273 231.971 29.5984 233.82 29.5049L234 29.5Z" fill="#5EB2DA" stroke="black"/>
<circle id="Ellipse 1_2" cx="259" cy="178" r="20" fill="#5EB2DA"/>
</g>
</g>
<path id="*" d="M254.957 109C255.316 109 255.582 109.094 255.754 109.281C255.934 109.469 256.004 109.727 255.965 110.055L255.543 113.336L258.543 111.918C258.723 111.84 258.879 111.801 259.012 111.801C259.199 111.801 259.363 111.867 259.504 112C259.652 112.125 259.766 112.309 259.844 112.551C259.891 112.699 259.914 112.844 259.914 112.984C259.914 113.203 259.848 113.387 259.715 113.535C259.582 113.684 259.391 113.781 259.141 113.828L255.883 114.449L258.18 116.887C258.375 117.082 258.473 117.293 258.473 117.52C258.473 117.809 258.309 118.07 257.98 118.305C257.746 118.469 257.527 118.551 257.324 118.551C256.996 118.551 256.734 118.371 256.539 118.012L254.957 115.141L253.375 118.012C253.18 118.371 252.918 118.551 252.59 118.551C252.387 118.551 252.168 118.469 251.934 118.305C251.605 118.07 251.441 117.809 251.441 117.52C251.441 117.293 251.539 117.082 251.734 116.887L254.008 114.449L250.773 113.828C250.523 113.781 250.332 113.684 250.199 113.535C250.066 113.387 250 113.203 250 112.984C250 112.844 250.023 112.699 250.07 112.551C250.148 112.309 250.258 112.125 250.398 112C250.547 111.867 250.715 111.801 250.902 111.801C251.035 111.801 251.191 111.84 251.371 111.918L254.371 113.336L253.949 110.055C253.941 110.016 253.938 109.957 253.938 109.879C253.938 109.605 254.023 109.391 254.195 109.234C254.375 109.078 254.629 109 254.957 109Z" fill="black"/>
<path id="*_2" d="M437.957 109C438.316 109 438.582 109.094 438.754 109.281C438.934 109.469 439.004 109.727 438.965 110.055L438.543 113.336L441.543 111.918C441.723 111.84 441.879 111.801 442.012 111.801C442.199 111.801 442.363 111.867 442.504 112C442.652 112.125 442.766 112.309 442.844 112.551C442.891 112.699 442.914 112.844 442.914 112.984C442.914 113.203 442.848 113.387 442.715 113.535C442.582 113.684 442.391 113.781 442.141 113.828L438.883 114.449L441.18 116.887C441.375 117.082 441.473 117.293 441.473 117.52C441.473 117.809 441.309 118.07 440.98 118.305C440.746 118.469 440.527 118.551 440.324 118.551C439.996 118.551 439.734 118.371 439.539 118.012L437.957 115.141L436.375 118.012C436.18 118.371 435.918 118.551 435.59 118.551C435.387 118.551 435.168 118.469 434.934 118.305C434.605 118.07 434.441 117.809 434.441 117.52C434.441 117.293 434.539 117.082 434.734 116.887L437.008 114.449L433.773 113.828C433.523 113.781 433.332 113.684 433.199 113.535C433.066 113.387 433 113.203 433 112.984C433 112.844 433.023 112.699 433.07 112.551C433.148 112.309 433.258 112.125 433.398 112C433.547 111.867 433.715 111.801 433.902 111.801C434.035 111.801 434.191 111.84 434.371 111.918L437.371 113.336L436.949 110.055C436.941 110.016 436.938 109.957 436.938 109.879C436.938 109.605 437.023 109.391 437.195 109.234C437.375 109.078 437.629 109 437.957 109Z" fill="black"/>
</g>
<g id="-L">
<rect id="top_key_13" x="592.5" y="29.5" width="41" height="81" rx="3.5" fill="#FF7C7C" stroke="black"/>
<path id="L" d="M614.23 63C614.496 63 614.684 63.0625 614.793 63.1875C614.91 63.3047 614.969 63.5078 614.969 63.7969C614.969 64.0859 614.91 64.293 614.793 64.418C614.684 64.5352 614.496 64.5938 614.23 64.5938H611.395V75.3164H617.195V71.4609C617.195 71.1875 617.262 70.9922 617.395 70.875C617.527 70.7578 617.754 70.6992 618.074 70.6992C618.395 70.6992 618.621 70.7578 618.754 70.875C618.887 70.9922 618.953 71.1875 618.953 71.4609V76.1133C618.953 76.4023 618.895 76.6094 618.777 76.7344C618.668 76.8516 618.48 76.9102 618.215 76.9102H607.738C607.473 76.9102 607.281 76.8516 607.164 76.7344C607.055 76.6094 607 76.4023 607 76.1133C607 75.8242 607.055 75.6211 607.164 75.5039C607.281 75.3789 607.473 75.3164 607.738 75.3164H609.637V64.5938H607.738C607.473 64.5938 607.281 64.5352 607.164 64.418C607.055 64.293 607 64.0859 607 63.7969C607 63.5078 607.055 63.3047 607.164 63.1875C607.281 63.0625 607.473 63 607.738 63H614.23Z" fill="black"/>
</g>
<g id="-P">
<rect id="top_key_14" x="532.5" y="29.5" width="41" height="81" rx="3.5" fill="#FF7C7C" stroke="black"/>
<path id="P_2" d="M554.148 63C555.188 63 556.078 63.1836 556.82 63.5508C557.562 63.918 558.125 64.4375 558.508 65.1094C558.898 65.7812 559.094 66.5586 559.094 67.4414C559.094 68.3242 558.898 69.0977 558.508 69.7617C558.125 70.418 557.562 70.9297 556.82 71.2969C556.078 71.6562 555.188 71.8359 554.148 71.8359H551.395V75.3164H554.207C554.473 75.3164 554.66 75.3789 554.77 75.5039C554.887 75.6211 554.945 75.8242 554.945 76.1133C554.945 76.4023 554.887 76.6094 554.77 76.7344C554.66 76.8516 554.473 76.9102 554.207 76.9102H547.738C547.473 76.9102 547.281 76.8516 547.164 76.7344C547.055 76.6094 547 76.4023 547 76.1133C547 75.8242 547.055 75.6211 547.164 75.5039C547.281 75.3789 547.473 75.3164 547.738 75.3164H549.637V64.5938H547.738C547.473 64.5938 547.281 64.5352 547.164 64.418C547.055 64.293 547 64.0859 547 63.7969C547 63.5078 547.055 63.3047 547.164 63.1875C547.281 63.0625 547.473 63 547.738 63H554.148ZM551.395 70.2422H553.902C554.988 70.2422 555.816 69.9961 556.387 69.5039C556.957 69.0117 557.242 68.3242 557.242 67.4414C557.242 66.543 556.953 65.8438 556.375 65.3438C555.805 64.8438 554.98 64.5938 553.902 64.5938H551.395V70.2422Z" fill="black"/>
</g>
<g id="-F">
<rect id="top_key_15" x="473.5" y="29.5" width="41" height="81" rx="3.5" fill="#FF7C7C" stroke="black"/>
<path id="F" d="M499.332 63C499.598 63 499.785 63.0625 499.895 63.1875C500.012 63.3047 500.07 63.5078 500.07 63.7969V66.8906C500.07 67.1641 500.004 67.3594 499.871 67.4766C499.738 67.5938 499.512 67.6523 499.191 67.6523C498.871 67.6523 498.645 67.5938 498.512 67.4766C498.379 67.3594 498.312 67.1641 498.312 66.8906V64.5938H492.043V69.1758H495.02V68.1094C495.02 67.8359 495.078 67.6406 495.195 67.5234C495.32 67.4062 495.539 67.3477 495.852 67.3477C496.164 67.3477 496.379 67.4062 496.496 67.5234C496.621 67.6406 496.684 67.8359 496.684 68.1094V71.8359C496.684 72.1094 496.621 72.3047 496.496 72.4219C496.379 72.5391 496.164 72.5977 495.852 72.5977C495.539 72.5977 495.32 72.5391 495.195 72.4219C495.078 72.3047 495.02 72.1094 495.02 71.8359V70.7695H492.043V75.3164H494.762C495.027 75.3164 495.215 75.3789 495.324 75.5039C495.441 75.6211 495.5 75.8242 495.5 76.1133C495.5 76.4023 495.441 76.6094 495.324 76.7344C495.215 76.8516 495.027 76.9102 494.762 76.9102H488.738C488.473 76.9102 488.281 76.8516 488.164 76.7344C488.055 76.6094 488 76.4023 488 76.1133C488 75.8242 488.055 75.6211 488.164 75.5039C488.281 75.3789 488.473 75.3164 488.738 75.3164H490.285V64.5938H488.738C488.473 64.5938 488.281 64.5352 488.164 64.418C488.055 64.293 488 64.0859 488 63.7969C488 63.5078 488.055 63.3047 488.164 63.1875C488.281 63.0625 488.473 63 488.738 63H499.332Z" fill="black"/>
</g>
<g id="-T">
<rect id="top_key_16" x="650.5" y="29.5" width="41" height="81" rx="3.5" fill="#FF7C7C" stroke="black"/>
<path id="T_2" d="M675.793 63C676.059 63 676.246 63.0625 676.355 63.1875C676.473 63.3047 676.531 63.5078 676.531 63.7969V68.2148C676.531 68.4883 676.465 68.6836 676.332 68.8008C676.199 68.918 675.973 68.9766 675.652 68.9766C675.332 68.9766 675.105 68.918 674.973 68.8008C674.84 68.6836 674.773 68.4883 674.773 68.2148V64.5938H671.645V75.3164H674.41C674.676 75.3164 674.863 75.3789 674.973 75.5039C675.09 75.6211 675.148 75.8242 675.148 76.1133C675.148 76.4023 675.09 76.6094 674.973 76.7344C674.863 76.8516 674.676 76.9102 674.41 76.9102H667.121C666.855 76.9102 666.664 76.8516 666.547 76.7344C666.438 76.6094 666.383 76.4023 666.383 76.1133C666.383 75.8242 666.438 75.6211 666.547 75.5039C666.664 75.3789 666.855 75.3164 667.121 75.3164H669.887V64.5938H666.758V68.2148C666.758 68.4883 666.691 68.6836 666.559 68.8008C666.426 68.918 666.199 68.9766 665.879 68.9766C665.559 68.9766 665.332 68.918 665.199 68.8008C665.066 68.6836 665 68.4883 665 68.2148V63.7969C665 63.5078 665.055 63.3047 665.164 63.1875C665.281 63.0625 665.473 63 665.738 63H675.793Z" fill="black"/>
</g>
<g id="-R">
<path id="top_key_17" d="M477 117.5H511C512.933 117.5 514.5 119.067 514.5 121V178C514.5 189.322 505.322 198.5 494 198.5C482.678 198.5 473.5 189.322 473.5 178V121C473.5 119.067 475.067 117.5 477 117.5Z" fill="#FF7C7C" stroke="black"/>
<path id="R_2" d="M494.668 151C495.645 151 496.48 151.164 497.176 151.492C497.879 151.82 498.41 152.281 498.77 152.875C499.137 153.469 499.32 154.16 499.32 154.949C499.32 155.84 499.031 156.594 498.453 157.211C497.875 157.828 497.082 158.25 496.074 158.477C496.512 158.648 496.875 158.926 497.164 159.309C497.406 159.629 497.613 159.949 497.785 160.27C497.957 160.582 498.148 160.969 498.359 161.43C498.578 161.906 498.746 162.254 498.863 162.473C499.168 163.035 499.52 163.316 499.918 163.316H500.246C500.512 163.316 500.699 163.379 500.809 163.504C500.926 163.621 500.984 163.824 500.984 164.113C500.984 164.402 500.926 164.609 500.809 164.734C500.699 164.852 500.512 164.91 500.246 164.91H499.402C498.934 164.91 498.535 164.789 498.207 164.547C497.887 164.297 497.574 163.875 497.27 163.281C497.098 162.938 496.887 162.484 496.637 161.922C496.402 161.406 496.211 161.008 496.062 160.727C495.922 160.438 495.75 160.152 495.547 159.871C495.312 159.543 495.031 159.297 494.703 159.133C494.375 158.961 493.98 158.875 493.52 158.875H491.926V163.316H493.449C493.715 163.316 493.902 163.379 494.012 163.504C494.129 163.621 494.188 163.824 494.188 164.113C494.188 164.402 494.129 164.609 494.012 164.734C493.902 164.852 493.715 164.91 493.449 164.91H488.738C488.473 164.91 488.281 164.852 488.164 164.734C488.055 164.609 488 164.402 488 164.113C488 163.824 488.055 163.621 488.164 163.504C488.281 163.379 488.473 163.316 488.738 163.316H490.168V152.594H488.738C488.473 152.594 488.281 152.535 488.164 152.418C488.055 152.293 488 152.086 488 151.797C488 151.508 488.055 151.305 488.164 151.188C488.281 151.062 488.473 151 488.738 151H494.668ZM491.926 157.281H494.305C496.414 157.281 497.469 156.504 497.469 154.949C497.469 154.199 497.203 153.621 496.672 153.215C496.141 152.801 495.391 152.594 494.422 152.594H491.926V157.281Z" fill="black"/>
</g>
<g id="-B">
<path id="top_key_18" d="M536 117.5H570C571.933 117.5 573.5 119.067 573.5 121V178C573.5 189.322 564.322 198.5 553 198.5C541.678 198.5 532.5 189.322 532.5 178V121C532.5 119.067 534.067 117.5 536 117.5Z" fill="#FF7C7C" stroke="black"/>
<path id="B" d="M553.609 151C554.523 151 555.301 151.156 555.941 151.469C556.582 151.781 557.062 152.223 557.383 152.793C557.711 153.355 557.875 154.016 557.875 154.773C557.875 155.367 557.738 155.895 557.465 156.355C557.199 156.809 556.816 157.18 556.316 157.469C557.145 157.734 557.777 158.164 558.215 158.758C558.66 159.344 558.883 160.07 558.883 160.938C558.883 161.758 558.707 162.465 558.355 163.059C558.004 163.652 557.492 164.109 556.82 164.43C556.148 164.75 555.336 164.91 554.383 164.91H547.738C547.473 164.91 547.281 164.852 547.164 164.734C547.055 164.609 547 164.402 547 164.113C547 163.824 547.055 163.621 547.164 163.504C547.281 163.379 547.473 163.316 547.738 163.316H549.168V152.594H547.738C547.473 152.594 547.281 152.535 547.164 152.418C547.055 152.293 547 152.086 547 151.797C547 151.508 547.055 151.305 547.164 151.188C547.281 151.062 547.473 151 547.738 151H553.609ZM550.926 156.93H553.352C554.25 156.93 554.93 156.742 555.391 156.367C555.852 155.992 556.082 155.461 556.082 154.773C556.082 154.055 555.855 153.512 555.402 153.145C554.949 152.777 554.266 152.594 553.352 152.594H550.926V156.93ZM550.926 163.316H554.031C554.992 163.316 555.73 163.109 556.246 162.695C556.77 162.281 557.031 161.695 557.031 160.938C557.031 159.328 556.051 158.523 554.09 158.523H550.926V163.316Z" fill="black"/>
</g>
<g id="-G">
<path id="top_key_19" d="M596 117.41H630C631.933 117.41 633.5 118.977 633.5 120.91V177.91C633.5 189.232 624.322 198.41 613 198.41C601.678 198.41 592.5 189.232 592.5 177.91V120.91C592.5 118.977 594.067 117.41 596 117.41Z" fill="#FF7C7C" stroke="black"/>
<path id="G" d="M617.418 150.91C617.738 150.91 617.965 150.969 618.098 151.086C618.23 151.203 618.297 151.398 618.297 151.672V155.07C618.297 155.344 618.23 155.539 618.098 155.656C617.965 155.773 617.738 155.832 617.418 155.832C617.098 155.832 616.871 155.773 616.738 155.656C616.605 155.539 616.539 155.344 616.539 155.07C616.539 154.602 616.41 154.184 616.152 153.816C615.902 153.449 615.531 153.164 615.039 152.961C614.547 152.75 613.961 152.645 613.281 152.645C612.414 152.645 611.645 152.867 610.973 153.312C610.309 153.758 609.789 154.395 609.414 155.223C609.039 156.051 608.852 157.02 608.852 158.129C608.852 159.238 609.027 160.207 609.379 161.035C609.738 161.855 610.242 162.488 610.891 162.934C611.547 163.379 612.305 163.602 613.164 163.602C614.531 163.602 615.699 163.379 616.668 162.934V160.273H613.773C613.508 160.273 613.316 160.215 613.199 160.098C613.09 159.973 613.035 159.766 613.035 159.477C613.035 159.188 613.09 158.984 613.199 158.867C613.316 158.742 613.508 158.68 613.773 158.68H618.801C619.066 158.68 619.254 158.742 619.363 158.867C619.48 158.984 619.539 159.188 619.539 159.477C619.539 159.766 619.48 159.973 619.363 160.098C619.254 160.215 619.066 160.273 618.801 160.273H618.426V163.402C618.426 163.785 618.285 164.055 618.004 164.211C617.363 164.578 616.625 164.859 615.789 165.055C614.953 165.242 614.078 165.336 613.164 165.336C611.945 165.336 610.867 165.039 609.93 164.445C609 163.844 608.277 163 607.762 161.914C607.254 160.82 607 159.559 607 158.129C607 156.707 607.262 155.449 607.785 154.355C608.316 153.262 609.047 152.414 609.977 151.812C610.914 151.211 611.977 150.91 613.164 150.91C613.898 150.91 614.547 151.027 615.109 151.262C615.68 151.488 616.156 151.816 616.539 152.246V151.672C616.539 151.398 616.605 151.203 616.738 151.086C616.871 150.969 617.098 150.91 617.418 150.91Z" fill="black"/>
</g>
<g id="-S">
<path id="top_key_20" d="M654 117.5H688C689.933 117.5 691.5 119.067 691.5 121V178C691.5 189.322 682.322 198.5 671 198.5C659.678 198.5 650.5 189.322 650.5 178V121C650.5 119.067 652.067 117.5 654 117.5Z" fill="#FF7C7C" stroke="black"/>
<path id="S_3" d="M675.199 151C675.52 151 675.746 151.059 675.879 151.176C676.012 151.293 676.078 151.488 676.078 151.762V154.457C676.078 154.73 676.012 154.926 675.879 155.043C675.746 155.16 675.52 155.219 675.199 155.219C674.902 155.219 674.699 155.117 674.59 154.914C674.215 154.203 673.688 153.664 673.008 153.297C672.328 152.922 671.555 152.734 670.688 152.734C669.828 152.734 669.16 152.934 668.684 153.332C668.215 153.73 667.98 154.266 667.98 154.938C667.98 155.258 668.062 155.527 668.227 155.746C668.391 155.965 668.625 156.152 668.93 156.309C669.203 156.449 669.523 156.566 669.891 156.66C670.258 156.746 670.75 156.848 671.367 156.965C672.039 157.098 672.57 157.211 672.961 157.305C673.359 157.391 673.75 157.512 674.133 157.668C674.914 157.988 675.523 158.438 675.961 159.016C676.406 159.586 676.629 160.359 676.629 161.336C676.629 162.148 676.438 162.863 676.055 163.48C675.672 164.09 675.105 164.566 674.355 164.91C673.613 165.254 672.719 165.426 671.672 165.426C670.891 165.426 670.164 165.285 669.492 165.004C668.828 164.715 668.25 164.297 667.758 163.75V164.664C667.758 164.938 667.691 165.133 667.559 165.25C667.426 165.367 667.199 165.426 666.879 165.426C666.559 165.426 666.332 165.367 666.199 165.25C666.066 165.133 666 164.938 666 164.664V161.148C666 160.875 666.066 160.68 666.199 160.562C666.332 160.445 666.559 160.387 666.879 160.387C667.215 160.387 667.441 160.551 667.559 160.879C667.879 161.785 668.387 162.48 669.082 162.965C669.785 163.449 670.648 163.691 671.672 163.691C672.672 163.691 673.438 163.477 673.969 163.047C674.508 162.617 674.777 162.047 674.777 161.336C674.777 160.844 674.652 160.445 674.402 160.141C674.16 159.828 673.805 159.57 673.336 159.367C673.039 159.234 672.715 159.129 672.363 159.051C672.012 158.965 671.531 158.859 670.922 158.734C670.281 158.609 669.742 158.492 669.305 158.383C668.875 158.273 668.477 158.137 668.109 157.973C667.484 157.691 666.996 157.312 666.645 156.836C666.301 156.352 666.129 155.719 666.129 154.938C666.129 154.133 666.32 153.434 666.703 152.84C667.094 152.246 667.633 151.793 668.32 151.48C669.016 151.16 669.805 151 670.688 151C671.375 151 672.039 151.133 672.68 151.398C673.32 151.664 673.867 152.023 674.32 152.477V151.762C674.32 151.488 674.387 151.293 674.52 151.176C674.652 151.059 674.879 151 675.199 151Z" fill="black"/>
</g>
<g id="-Z">
<g id="key_3">
<path id="top_key_21" d="M712 117.5H746C747.933 117.5 749.5 119.067 749.5 121V178C749.5 189.322 740.322 198.5 729 198.5C717.678 198.5 708.5 189.322 708.5 178V121C708.5 119.067 710.067 117.5 712 117.5Z" fill="#FF7C7C" stroke="black"/>
<path id="top_key_22" d="M702 117.5H746C747.933 117.5 749.5 119.067 749.5 121V174C749.5 175.933 747.933 177.5 746 177.5H702C700.067 177.5 698.5 175.933 698.5 174V121L698.505 120.82C698.598 118.971 700.127 117.5 702 117.5Z" fill="#FF7C7C" stroke="black"/>
<circle id="Ellipse 1_3" cx="20" cy="20" r="20" transform="matrix(-1 0 0 1 749 158)" fill="#FF7C7C"/>
</g>
<path id="Z" d="M733.609 151C733.875 151 734.062 151.062 734.172 151.188C734.289 151.305 734.348 151.508 734.348 151.797C734.348 151.992 734.309 152.145 734.23 152.254L726.461 163.316H732.695V160.164C732.695 159.891 732.762 159.695 732.895 159.578C733.027 159.461 733.254 159.402 733.574 159.402C733.895 159.402 734.121 159.461 734.254 159.578C734.387 159.695 734.453 159.891 734.453 160.164V164.113C734.453 164.402 734.395 164.609 734.277 164.734C734.168 164.852 733.98 164.91 733.715 164.91H724.738C724.473 164.91 724.281 164.852 724.164 164.734C724.055 164.609 724 164.402 724 164.113C724 163.941 724.055 163.773 724.164 163.609L731.887 152.594H726.004V155.512C726.004 155.785 725.938 155.98 725.805 156.098C725.672 156.215 725.445 156.273 725.125 156.273C724.805 156.273 724.578 156.215 724.445 156.098C724.312 155.98 724.246 155.785 724.246 155.512V151.797C724.246 151.508 724.301 151.305 724.41 151.188C724.527 151.062 724.719 151 724.984 151H733.609Z" fill="black"/>
</g>
<g id="-D">
<rect id="top_key_23" x="698.5" y="29.5" width="51" height="81" rx="3.5" fill="#FF7C7C" stroke="black"/>
<path id="D" d="M729.649 63C730.853 63 731.91 63.2812 732.823 63.8438C733.735 64.3984 734.44 65.2031 734.938 66.2578C735.444 67.3047 735.697 68.5391 735.697 69.9609C735.697 71.3828 735.444 72.6172 734.938 73.6641C734.44 74.7109 733.735 75.5156 732.823 76.0781C731.91 76.6328 730.853 76.9102 729.649 76.9102H724.234C723.973 76.9102 723.785 76.8516 723.67 76.7344C723.563 76.6094 723.509 76.4023 723.509 76.1133C723.509 75.8242 723.563 75.6211 723.67 75.5039C723.785 75.3789 723.973 75.3164 724.234 75.3164H725.522V64.5938H724.234C723.973 64.5938 723.785 64.5352 723.67 64.418C723.563 64.293 723.509 64.0859 723.509 63.7969C723.509 63.5078 723.563 63.3047 723.67 63.1875C723.785 63.0625 723.973 63 724.234 63H729.649ZM727.246 75.3164H729.385C730.297 75.3164 731.09 75.1133 731.765 74.707C732.439 74.293 732.961 73.6875 733.328 72.8906C733.696 72.0859 733.88 71.1094 733.88 69.9609C733.88 68.8125 733.696 67.8398 733.328 67.043C732.961 66.2383 732.439 65.6289 731.765 65.2148C731.09 64.8008 730.297 64.5938 729.385 64.5938H727.246V75.3164Z" fill="black"/>
</g>
</g>
<g id="not_pressed">
<g id="S-">
<path id="top_key_24" d="M4 112.5H38C39.933 112.5 41.5 114.067 41.5 116V173C41.5 184.322 32.3218 193.5 21 193.5C9.67816 193.5 0.5 184.322 0.5 173V116C0.500001 114.067 2.067 112.5 4 112.5Z" stroke="black"/>
<path id="S_4" d="M25.1992 146C25.5195 146 25.7461 146.059 25.8789 146.176C26.0117 146.293 26.0781 146.488 26.0781 146.762V149.457C26.0781 149.73 26.0117 149.926 25.8789 150.043C25.7461 150.16 25.5195 150.219 25.1992 150.219C24.9023 150.219 24.6992 150.117 24.5898 149.914C24.2148 149.203 23.6875 148.664 23.0078 148.297C22.3281 147.922 21.5547 147.734 20.6875 147.734C19.8281 147.734 19.1602 147.934 18.6836 148.332C18.2148 148.73 17.9805 149.266 17.9805 149.938C17.9805 150.258 18.0625 150.527 18.2266 150.746C18.3906 150.965 18.625 151.152 18.9297 151.309C19.2031 151.449 19.5234 151.566 19.8906 151.66C20.2578 151.746 20.75 151.848 21.3672 151.965C22.0391 152.098 22.5703 152.211 22.9609 152.305C23.3594 152.391 23.75 152.512 24.1328 152.668C24.9141 152.988 25.5234 153.438 25.9609 154.016C26.4062 154.586 26.6289 155.359 26.6289 156.336C26.6289 157.148 26.4375 157.863 26.0547 158.48C25.6719 159.09 25.1055 159.566 24.3555 159.91C23.6133 160.254 22.7188 160.426 21.6719 160.426C20.8906 160.426 20.1641 160.285 19.4922 160.004C18.8281 159.715 18.25 159.297 17.7578 158.75V159.664C17.7578 159.938 17.6914 160.133 17.5586 160.25C17.4258 160.367 17.1992 160.426 16.8789 160.426C16.5586 160.426 16.332 160.367 16.1992 160.25C16.0664 160.133 16 159.938 16 159.664V156.148C16 155.875 16.0664 155.68 16.1992 155.562C16.332 155.445 16.5586 155.387 16.8789 155.387C17.2148 155.387 17.4414 155.551 17.5586 155.879C17.8789 156.785 18.3867 157.48 19.082 157.965C19.7852 158.449 20.6484 158.691 21.6719 158.691C22.6719 158.691 23.4375 158.477 23.9688 158.047C24.5078 157.617 24.7773 157.047 24.7773 156.336C24.7773 155.844 24.6523 155.445 24.4023 155.141C24.1602 154.828 23.8047 154.57 23.3359 154.367C23.0391 154.234 22.7148 154.129 22.3633 154.051C22.0117 153.965 21.5312 153.859 20.9219 153.734C20.2812 153.609 19.7422 153.492 19.3047 153.383C18.875 153.273 18.4766 153.137 18.1094 152.973C17.4844 152.691 16.9961 152.312 16.6445 151.836C16.3008 151.352 16.1289 150.719 16.1289 149.938C16.1289 149.133 16.3203 148.434 16.7031 147.84C17.0938 147.246 17.6328 146.793 18.3203 146.48C19.0156 146.16 19.8047 146 20.6875 146C21.375 146 22.0391 146.133 22.6797 146.398C23.3203 146.664 23.8672 147.023 24.3203 147.477V146.762C24.3203 146.488 24.3867 146.293 24.5195 146.176C24.6523 146.059 24.8789 146 25.1992 146Z" fill="black"/>
<rect id="top_key_25" x="0.5" y="24.5" width="41" height="81" rx="3.5" stroke="black"/>
<path id="S_5" d="M25.1992 58C25.5195 58 25.7461 58.0586 25.8789 58.1758C26.0117 58.293 26.0781 58.4883 26.0781 58.7617V61.457C26.0781 61.7305 26.0117 61.9258 25.8789 62.043C25.7461 62.1602 25.5195 62.2188 25.1992 62.2188C24.9023 62.2188 24.6992 62.1172 24.5898 61.9141C24.2148 61.2031 23.6875 60.6641 23.0078 60.2969C22.3281 59.9219 21.5547 59.7344 20.6875 59.7344C19.8281 59.7344 19.1602 59.9336 18.6836 60.332C18.2148 60.7305 17.9805 61.2656 17.9805 61.9375C17.9805 62.2578 18.0625 62.5273 18.2266 62.7461C18.3906 62.9648 18.625 63.1523 18.9297 63.3086C19.2031 63.4492 19.5234 63.5664 19.8906 63.6602C20.2578 63.7461 20.75 63.8477 21.3672 63.9648C22.0391 64.0977 22.5703 64.2109 22.9609 64.3047C23.3594 64.3906 23.75 64.5117 24.1328 64.668C24.9141 64.9883 25.5234 65.4375 25.9609 66.0156C26.4062 66.5859 26.6289 67.3594 26.6289 68.3359C26.6289 69.1484 26.4375 69.8633 26.0547 70.4805C25.6719 71.0898 25.1055 71.5664 24.3555 71.9102C23.6133 72.2539 22.7188 72.4258 21.6719 72.4258C20.8906 72.4258 20.1641 72.2852 19.4922 72.0039C18.8281 71.7148 18.25 71.2969 17.7578 70.75V71.6641C17.7578 71.9375 17.6914 72.1328 17.5586 72.25C17.4258 72.3672 17.1992 72.4258 16.8789 72.4258C16.5586 72.4258 16.332 72.3672 16.1992 72.25C16.0664 72.1328 16 71.9375 16 71.6641V68.1484C16 67.875 16.0664 67.6797 16.1992 67.5625C16.332 67.4453 16.5586 67.3867 16.8789 67.3867C17.2148 67.3867 17.4414 67.5508 17.5586 67.8789C17.8789 68.7852 18.3867 69.4805 19.082 69.9648C19.7852 70.4492 20.6484 70.6914 21.6719 70.6914C22.6719 70.6914 23.4375 70.4766 23.9688 70.0469C24.5078 69.6172 24.7773 69.0469 24.7773 68.3359C24.7773 67.8438 24.6523 67.4453 24.4023 67.1406C24.1602 66.8281 23.8047 66.5703 23.3359 66.3672C23.0391 66.2344 22.7148 66.1289 22.3633 66.0508C22.0117 65.9648 21.5312 65.8594 20.9219 65.7344C20.2812 65.6094 19.7422 65.4922 19.3047 65.3828C18.875 65.2734 18.4766 65.1367 18.1094 64.9727C17.4844 64.6914 16.9961 64.3125 16.6445 63.8359C16.3008 63.3516 16.1289 62.7188 16.1289 61.9375C16.1289 61.1328 16.3203 60.4336 16.7031 59.8398C17.0938 59.2461 17.6328 58.793 18.3203 58.4805C19.0156 58.1602 19.8047 58 20.6875 58C21.375 58 22.0391 58.1328 22.6797 58.3984C23.3203 58.6641 23.8672 59.0234 24.3203 59.4766V58.7617C24.3203 58.4883 24.3867 58.293 24.5195 58.1758C24.6523 58.0586 24.8789 58 25.1992 58Z" fill="black"/>
</g>
<g id="K-">
<path id="top_key_26" d="M64 112.5H98C99.933 112.5 101.5 114.067 101.5 116V173C101.5 184.322 92.3218 193.5 81 193.5C69.6782 193.5 60.5 184.322 60.5 173V116C60.5 114.067 62.067 112.5 64 112.5Z" stroke="black"/>
<path id="K_2" d="M85.8945 146C86.1602 146 86.3477 146.062 86.457 146.188C86.5742 146.305 86.6328 146.508 86.6328 146.797C86.6328 147.086 86.5742 147.293 86.457 147.418C86.3477 147.535 86.1602 147.594 85.8945 147.594H85.1797L80.2695 152.34C80.332 152.332 80.4258 152.328 80.5508 152.328C81.5742 152.328 82.3906 152.719 83 153.5C83.2422 153.812 83.4531 154.164 83.6328 154.555C83.8203 154.945 84.0234 155.434 84.2422 156.02C84.2734 156.098 84.3516 156.305 84.4766 156.641C84.6094 156.969 84.7383 157.246 84.8633 157.473C85.168 158.035 85.5195 158.316 85.918 158.316H86.2461C86.5117 158.316 86.6992 158.379 86.8086 158.504C86.9258 158.621 86.9844 158.824 86.9844 159.113C86.9844 159.402 86.9258 159.609 86.8086 159.734C86.6992 159.852 86.5117 159.91 86.2461 159.91H85.2852C84.4961 159.91 83.8242 159.367 83.2695 158.281C83.0742 157.891 82.8438 157.355 82.5781 156.676C82.3984 156.199 82.2344 155.797 82.0859 155.469C81.9375 155.141 81.7734 154.848 81.5938 154.59C81.4062 154.324 81.168 154.121 80.8789 153.98C80.5977 153.84 80.2773 153.77 79.918 153.77C79.5898 153.77 79.2734 153.828 78.9688 153.945C78.6641 154.062 78.3945 154.234 78.1602 154.461L77.8086 154.801V158.316H79.707C79.9727 158.316 80.1602 158.379 80.2695 158.504C80.3867 158.621 80.4453 158.824 80.4453 159.113C80.4453 159.402 80.3867 159.609 80.2695 159.734C80.1602 159.852 79.9727 159.91 79.707 159.91H74.7383C74.4727 159.91 74.2812 159.852 74.1641 159.734C74.0547 159.609 74 159.402 74 159.113C74 158.824 74.0547 158.621 74.1641 158.504C74.2812 158.379 74.4727 158.316 74.7383 158.316H76.0508V147.594H74.7383C74.4727 147.594 74.2812 147.535 74.1641 147.418C74.0547 147.293 74 147.086 74 146.797C74 146.508 74.0547 146.305 74.1641 146.188C74.2812 146.062 74.4727 146 74.7383 146H78.8867C79.1523 146 79.3398 146.062 79.4492 146.188C79.5664 146.305 79.625 146.508 79.625 146.797C79.625 147.086 79.5664 147.293 79.4492 147.418C79.3398 147.535 79.1523 147.594 78.8867 147.594H77.8086V152.621L82.9414 147.594H82.0977C81.832 147.594 81.6406 147.535 81.5234 147.418C81.4141 147.293 81.3594 147.086 81.3594 146.797C81.3594 146.508 81.4141 146.305 81.5234 146.188C81.6406 146.062 81.832 146 82.0977 146H85.8945Z" fill="black"/>
</g>
<g id="W-">
<path id="top_key_27" d="M122 112.5H156C157.933 112.5 159.5 114.067 159.5 116V173C159.5 184.322 150.322 193.5 139 193.5C127.678 193.5 118.5 184.322 118.5 173V116C118.5 114.067 120.067 112.5 122 112.5Z" stroke="black"/>
<path id="W_2" d="M145.887 146C146.152 146 146.34 146.062 146.449 146.188C146.566 146.305 146.625 146.508 146.625 146.797C146.625 147.086 146.566 147.293 146.449 147.418C146.34 147.535 146.152 147.594 145.887 147.594H145.254L143.637 159.406C143.598 159.688 143.496 159.883 143.332 159.992C143.176 160.109 142.941 160.168 142.629 160.168C141.988 160.168 141.59 159.914 141.434 159.406L139.266 152.598L137.074 159.406C136.91 159.914 136.504 160.168 135.855 160.168C135.551 160.168 135.316 160.109 135.152 159.992C134.996 159.875 134.902 159.68 134.871 159.406L133.312 147.594H132.738C132.473 147.594 132.281 147.535 132.164 147.418C132.055 147.293 132 147.086 132 146.797C132 146.508 132.055 146.305 132.164 146.188C132.281 146.062 132.473 146 132.738 146H136.77C137.035 146 137.223 146.062 137.332 146.188C137.449 146.305 137.508 146.508 137.508 146.797C137.508 147.086 137.449 147.293 137.332 147.418C137.223 147.535 137.035 147.594 136.77 147.594H135.059L136.23 156.98L138.434 150.09C138.543 149.723 138.824 149.539 139.277 149.539C139.527 149.539 139.719 149.578 139.852 149.656C139.992 149.734 140.086 149.852 140.133 150.008L142.324 156.98L143.543 147.594H142.09C141.824 147.594 141.633 147.535 141.516 147.418C141.406 147.293 141.352 147.086 141.352 146.797C141.352 146.508 141.406 146.305 141.516 146.188C141.633 146.062 141.824 146 142.09 146H145.887Z" fill="black"/>
</g>
<g id="R-">
<path id="top_key_28" d="M182 112.5H216C217.933 112.5 219.5 114.067 219.5 116V173C219.5 184.322 210.322 193.5 199 193.5C187.678 193.5 178.5 184.322 178.5 173V116C178.5 114.067 180.067 112.5 182 112.5Z" stroke="black"/>
<path id="R_3" d="M198.668 146C199.645 146 200.48 146.164 201.176 146.492C201.879 146.82 202.41 147.281 202.77 147.875C203.137 148.469 203.32 149.16 203.32 149.949C203.32 150.84 203.031 151.594 202.453 152.211C201.875 152.828 201.082 153.25 200.074 153.477C200.512 153.648 200.875 153.926 201.164 154.309C201.406 154.629 201.613 154.949 201.785 155.27C201.957 155.582 202.148 155.969 202.359 156.43C202.578 156.906 202.746 157.254 202.863 157.473C203.168 158.035 203.52 158.316 203.918 158.316H204.246C204.512 158.316 204.699 158.379 204.809 158.504C204.926 158.621 204.984 158.824 204.984 159.113C204.984 159.402 204.926 159.609 204.809 159.734C204.699 159.852 204.512 159.91 204.246 159.91H203.402C202.934 159.91 202.535 159.789 202.207 159.547C201.887 159.297 201.574 158.875 201.27 158.281C201.098 157.938 200.887 157.484 200.637 156.922C200.402 156.406 200.211 156.008 200.062 155.727C199.922 155.438 199.75 155.152 199.547 154.871C199.312 154.543 199.031 154.297 198.703 154.133C198.375 153.961 197.98 153.875 197.52 153.875H195.926V158.316H197.449C197.715 158.316 197.902 158.379 198.012 158.504C198.129 158.621 198.188 158.824 198.188 159.113C198.188 159.402 198.129 159.609 198.012 159.734C197.902 159.852 197.715 159.91 197.449 159.91H192.738C192.473 159.91 192.281 159.852 192.164 159.734C192.055 159.609 192 159.402 192 159.113C192 158.824 192.055 158.621 192.164 158.504C192.281 158.379 192.473 158.316 192.738 158.316H194.168V147.594H192.738C192.473 147.594 192.281 147.535 192.164 147.418C192.055 147.293 192 147.086 192 146.797C192 146.508 192.055 146.305 192.164 146.188C192.281 146.062 192.473 146 192.738 146H198.668ZM195.926 152.281H198.305C200.414 152.281 201.469 151.504 201.469 149.949C201.469 149.199 201.203 148.621 200.672 148.215C200.141 147.801 199.391 147.594 198.422 147.594H195.926V152.281Z" fill="black"/>
</g>
<g id="A-">
<g id="top_key_29">
<mask id="path-69-inside-5_3_2" fill="white">
<path d="M205.496 210.501C207.705 210.501 209.496 212.291 209.496 214.501V288.501C209.496 290.71 207.705 292.501 205.496 292.501H171.496C169.287 292.501 167.496 290.71 167.496 288.501V214.501C167.496 212.292 169.287 210.501 171.496 210.501H205.496Z"/>
</mask>
<path d="M205.496 210.501C207.705 210.501 209.496 212.291 209.496 214.501V288.501C209.496 290.71 207.705 292.501 205.496 292.501H171.496C169.287 292.501 167.496 290.71 167.496 288.501V214.501C167.496 212.292 169.287 210.501 171.496 210.501H205.496Z" stroke="black" stroke-width="2" mask="url(#path-69-inside-5_3_2)"/>
</g>
<path id="A_2" d="M188.879 244.501C189.192 244.501 189.442 244.563 189.629 244.688C189.824 244.805 189.969 244.997 190.063 245.262L194.199 256.817H194.914C195.18 256.817 195.367 256.88 195.477 257.005C195.594 257.122 195.653 257.325 195.653 257.614C195.653 257.903 195.594 258.11 195.477 258.235C195.367 258.352 195.18 258.411 194.914 258.411H190.766C190.5 258.411 190.309 258.352 190.192 258.235C190.082 258.11 190.028 257.903 190.028 257.614C190.028 257.325 190.082 257.122 190.192 257.005C190.309 256.88 190.5 256.817 190.766 256.817H192.348L191.387 254.028H185.703L184.731 256.817H186.149C186.414 256.817 186.602 256.88 186.711 257.005C186.828 257.122 186.887 257.325 186.887 257.614C186.887 257.903 186.828 258.11 186.711 258.235C186.602 258.352 186.414 258.411 186.149 258.411H182.235C181.969 258.411 181.778 258.352 181.66 258.235C181.551 258.11 181.496 257.903 181.496 257.614C181.496 257.325 181.551 257.122 181.66 257.005C181.778 256.88 181.969 256.817 182.235 256.817H182.891L186.77 246.094H184.578C184.313 246.094 184.121 246.036 184.004 245.919C183.895 245.794 183.84 245.587 183.84 245.297C183.84 245.008 183.895 244.805 184.004 244.688C184.121 244.563 184.313 244.501 184.578 244.501H188.879ZM188.446 246.094L186.254 252.434H190.848L188.668 246.094H188.446Z" fill="black"/>
</g>
<g id="-E">
<g id="top_key_30">
<mask id="path-71-inside-6_3_2" fill="white">
<path d="M470.079 211.001C472.288 211.001 474.079 212.791 474.079 215.001V289.001C474.079 291.21 472.288 293.001 470.079 293.001H436.079C433.87 293.001 432.079 291.21 432.079 289.001V215.001C432.079 212.792 433.87 211.001 436.079 211.001H470.079Z"/>
</mask>
<path d="M470.079 211.001C472.288 211.001 474.079 212.791 474.079 215.001V289.001C474.079 291.21 472.288 293.001 470.079 293.001H436.079C433.87 293.001 432.079 291.21 432.079 289.001V215.001C432.079 212.792 433.87 211.001 436.079 211.001H470.079Z" stroke="black" stroke-width="2" mask="url(#path-71-inside-6_3_2)"/>
</g>
<path id="E_2" d="M457.091 252.462C457.411 252.462 457.638 252.52 457.77 252.637C457.903 252.755 457.97 252.95 457.97 253.223V256.704C457.97 256.993 457.911 257.2 457.794 257.325C457.684 257.442 457.497 257.501 457.231 257.501H446.755C446.489 257.501 446.298 257.442 446.181 257.325C446.071 257.2 446.017 256.993 446.017 256.704C446.017 256.415 446.071 256.212 446.181 256.094C446.298 255.969 446.489 255.907 446.755 255.907H447.95V245.184H446.755C446.489 245.184 446.298 245.126 446.181 245.008C446.071 244.883 446.017 244.676 446.017 244.387C446.017 244.098 446.071 243.895 446.181 243.778C446.298 243.653 446.489 243.59 446.755 243.59H456.997C457.263 243.59 457.45 243.653 457.559 243.778C457.677 243.895 457.735 244.098 457.735 244.387V247.364C457.735 247.637 457.669 247.833 457.536 247.95C457.403 248.067 457.177 248.126 456.856 248.126C456.536 248.126 456.309 248.067 456.177 247.95C456.044 247.833 455.977 247.637 455.977 247.364V245.184H449.708V249.532H452.731V248.465C452.731 248.192 452.79 247.997 452.907 247.88C453.032 247.762 453.251 247.704 453.563 247.704C453.876 247.704 454.091 247.762 454.208 247.88C454.333 247.997 454.395 248.192 454.395 248.465V252.192C454.395 252.465 454.333 252.661 454.208 252.778C454.091 252.895 453.876 252.954 453.563 252.954C453.251 252.954 453.032 252.895 452.907 252.778C452.79 252.661 452.731 252.465 452.731 252.192V251.126H449.708V255.907H456.212V253.223C456.212 252.95 456.278 252.755 456.411 252.637C456.544 252.52 456.77 252.462 457.091 252.462Z" fill="black"/>
</g>
<g id="O-">
<g id="top_key_31">
<mask id="path-73-inside-7_3_2" fill="white">
<path d="M257.496 210.501C259.705 210.501 261.496 212.292 261.496 214.501V288.501C261.496 290.71 259.705 292.501 257.496 292.501H223.496C221.287 292.501 219.496 290.71 219.496 288.501V214.501C219.496 212.292 221.287 210.501 223.496 210.501H257.496Z"/>
</mask>
<path d="M257.496 210.501C259.705 210.501 261.496 212.292 261.496 214.501V288.501C261.496 290.71 259.705 292.501 257.496 292.501H223.496C221.287 292.501 219.496 290.71 219.496 288.501V214.501C219.496 212.292 221.287 210.501 223.496 210.501H257.496Z" stroke="black" stroke-width="2" mask="url(#path-73-inside-7_3_2)"/>
</g>
<path id="O_2" d="M240.66 244.501C241.879 244.501 242.953 244.801 243.883 245.403C244.821 246.005 245.543 246.852 246.051 247.946C246.567 249.032 246.824 250.29 246.824 251.719C246.824 253.149 246.567 254.411 246.051 255.505C245.543 256.59 244.821 257.434 243.883 258.036C242.953 258.63 241.879 258.926 240.66 258.926C239.442 258.926 238.364 258.63 237.426 258.036C236.496 257.434 235.774 256.59 235.258 255.505C234.75 254.411 234.496 253.149 234.496 251.719C234.496 250.29 234.75 249.032 235.258 247.946C235.774 246.852 236.496 246.005 237.426 245.403C238.364 244.801 239.442 244.501 240.66 244.501ZM240.66 246.235C239.801 246.235 239.043 246.458 238.387 246.903C237.739 247.348 237.235 247.985 236.875 248.813C236.524 249.641 236.348 250.61 236.348 251.719C236.348 252.829 236.524 253.798 236.875 254.626C237.235 255.446 237.739 256.079 238.387 256.524C239.043 256.969 239.801 257.192 240.66 257.192C241.52 257.192 242.274 256.969 242.922 256.524C243.578 256.079 244.082 255.446 244.434 254.626C244.793 253.798 244.973 252.829 244.973 251.719C244.973 250.61 244.793 249.641 244.434 248.813C244.082 247.985 243.578 247.348 242.922 246.903C242.274 246.458 241.52 246.235 240.66 246.235Z" fill="black"/>
</g>
<g id="-U">
<g id="top_key_32">
<mask id="path-75-inside-8_3_2" fill="white">
<path d="M522.079 211.001C524.288 211.001 526.079 212.792 526.079 215.001V289.001C526.079 291.21 524.288 293.001 522.079 293.001H488.079C485.87 293.001 484.079 291.21 484.079 289.001V215.001C484.079 212.792 485.87 211.001 488.079 211.001H522.079Z"/>
</mask>
<path d="M522.079 211.001C524.288 211.001 526.079 212.792 526.079 215.001V289.001C526.079 291.21 524.288 293.001 522.079 293.001H488.079C485.87 293.001 484.079 291.21 484.079 289.001V215.001C484.079 212.792 485.87 211.001 488.079 211.001H522.079Z" stroke="black" stroke-width="2" mask="url(#path-75-inside-8_3_2)"/>
</g>
<path id="U_2" d="M510.091 244.501C510.356 244.501 510.544 244.563 510.653 244.688C510.77 244.805 510.829 245.008 510.829 245.298C510.829 245.587 510.77 245.794 510.653 245.919C510.544 246.036 510.356 246.094 510.091 246.094H509.364V253.805C509.364 255.438 508.934 256.657 508.075 257.462C507.224 258.266 506.017 258.669 504.454 258.669C502.892 258.669 501.681 258.266 500.821 257.462C499.97 256.657 499.544 255.438 499.544 253.805V246.094H498.817C498.552 246.094 498.36 246.036 498.243 245.919C498.134 245.794 498.079 245.587 498.079 245.298C498.079 245.008 498.134 244.805 498.243 244.688C498.36 244.563 498.552 244.501 498.817 244.501H502.614C502.88 244.501 503.067 244.563 503.177 244.688C503.294 244.805 503.352 245.008 503.352 245.298C503.352 245.587 503.294 245.794 503.177 245.919C503.067 246.036 502.88 246.094 502.614 246.094H501.302V253.571C501.302 254.766 501.556 255.626 502.063 256.149C502.571 256.673 503.368 256.934 504.454 256.934C505.54 256.934 506.337 256.673 506.845 256.149C507.352 255.626 507.606 254.766 507.606 253.571V246.094H506.294C506.028 246.094 505.837 246.036 505.72 245.919C505.61 245.794 505.556 245.587 505.556 245.298C505.556 245.008 505.61 244.805 505.72 244.688C505.837 244.563 506.028 244.501 506.294 244.501H510.091Z" fill="black"/>
</g>
<g id="T-">
<rect id="top_key_33" x="60.5" y="24.5" width="41" height="81" rx="3.5" stroke="black"/>
<path id="T_3" d="M86.793 58C87.0586 58 87.2461 58.0625 87.3555 58.1875C87.4727 58.3047 87.5312 58.5078 87.5312 58.7969V63.2148C87.5312 63.4883 87.4648 63.6836 87.332 63.8008C87.1992 63.918 86.9727 63.9766 86.6523 63.9766C86.332 63.9766 86.1055 63.918 85.9727 63.8008C85.8398 63.6836 85.7734 63.4883 85.7734 63.2148V59.5938H82.6445V70.3164H85.4102C85.6758 70.3164 85.8633 70.3789 85.9727 70.5039C86.0898 70.6211 86.1484 70.8242 86.1484 71.1133C86.1484 71.4023 86.0898 71.6094 85.9727 71.7344C85.8633 71.8516 85.6758 71.9102 85.4102 71.9102H78.1211C77.8555 71.9102 77.6641 71.8516 77.5469 71.7344C77.4375 71.6094 77.3828 71.4023 77.3828 71.1133C77.3828 70.8242 77.4375 70.6211 77.5469 70.5039C77.6641 70.3789 77.8555 70.3164 78.1211 70.3164H80.8867V59.5938H77.7578V63.2148C77.7578 63.4883 77.6914 63.6836 77.5586 63.8008C77.4258 63.918 77.1992 63.9766 76.8789 63.9766C76.5586 63.9766 76.332 63.918 76.1992 63.8008C76.0664 63.6836 76 63.4883 76 63.2148V58.7969C76 58.5078 76.0547 58.3047 76.1641 58.1875C76.2812 58.0625 76.4727 58 76.7383 58H86.793Z" fill="black"/>
</g>
<g id="#">
<rect id="number_key_2_2" x="0.5" y="0.5" width="219" height="17" rx="3.5" stroke="black"/>
<rect id="number_key_1_2" x="473.5" y="0.5" width="218" height="17" rx="3.5" stroke="black"/>
<path id="#_3" d="M116.246 6.03125C116.512 6.03125 116.699 6.09766 116.809 6.23047C116.926 6.35547 116.984 6.57031 116.984 6.875C116.984 7.17969 116.926 7.39844 116.809 7.53125C116.699 7.65625 116.512 7.71875 116.246 7.71875H113.973L113.223 10.5898H115.426C115.691 10.5898 115.879 10.6562 115.988 10.7891C116.105 10.9141 116.164 11.1289 116.164 11.4336C116.164 11.7383 116.105 11.957 115.988 12.0898C115.879 12.2148 115.691 12.2773 115.426 12.2773H112.777L111.805 16.0391C111.773 16.1641 111.695 16.2578 111.57 16.3203C111.453 16.3906 111.32 16.4258 111.172 16.4258C110.953 16.4258 110.758 16.3672 110.586 16.25C110.414 16.1328 110.328 15.9805 110.328 15.793C110.328 15.7695 110.336 15.7188 110.352 15.6406L111.23 12.2773H108.16L107.188 16.0391C107.156 16.1641 107.078 16.2578 106.953 16.3203C106.836 16.3906 106.703 16.4258 106.555 16.4258C106.336 16.4258 106.141 16.3672 105.969 16.25C105.797 16.1328 105.711 15.9805 105.711 15.793C105.711 15.7695 105.719 15.7188 105.734 15.6406L106.613 12.2773H104.738C104.473 12.2773 104.281 12.2148 104.164 12.0898C104.055 11.957 104 11.7383 104 11.4336C104 11.1289 104.055 10.9141 104.164 10.7891C104.281 10.6562 104.473 10.5898 104.738 10.5898H107.047L107.797 7.71875H105.559C105.293 7.71875 105.102 7.65625 104.984 7.53125C104.875 7.39844 104.82 7.17969 104.82 6.875C104.82 6.57031 104.875 6.35547 104.984 6.23047C105.102 6.09766 105.293 6.03125 105.559 6.03125H108.23L109.18 2.38672C109.211 2.26172 109.285 2.16797 109.402 2.10547C109.527 2.03516 109.664 2 109.812 2C110.031 2 110.227 2.05859 110.398 2.17578C110.57 2.29297 110.656 2.44531 110.656 2.63281C110.656 2.65625 110.648 2.70703 110.633 2.78516L109.789 6.03125H112.848L113.797 2.38672C113.828 2.26172 113.902 2.16797 114.02 2.10547C114.145 2.03516 114.281 2 114.43 2C114.648 2 114.844 2.05859 115.016 2.17578C115.188 2.29297 115.273 2.44531 115.273 2.63281C115.273 2.65625 115.266 2.70703 115.25 2.78516L114.406 6.03125H116.246ZM111.664 10.5898L112.414 7.71875H109.355L108.605 10.5898H111.664Z" fill="black"/>
<path id="#_4" d="M588.246 6.03125C588.512 6.03125 588.699 6.09766 588.809 6.23047C588.926 6.35547 588.984 6.57031 588.984 6.875C588.984 7.17969 588.926 7.39844 588.809 7.53125C588.699 7.65625 588.512 7.71875 588.246 7.71875H585.973L585.223 10.5898H587.426C587.691 10.5898 587.879 10.6562 587.988 10.7891C588.105 10.9141 588.164 11.1289 588.164 11.4336C588.164 11.7383 588.105 11.957 587.988 12.0898C587.879 12.2148 587.691 12.2773 587.426 12.2773H584.777L583.805 16.0391C583.773 16.1641 583.695 16.2578 583.57 16.3203C583.453 16.3906 583.32 16.4258 583.172 16.4258C582.953 16.4258 582.758 16.3672 582.586 16.25C582.414 16.1328 582.328 15.9805 582.328 15.793C582.328 15.7695 582.336 15.7188 582.352 15.6406L583.23 12.2773H580.16L579.188 16.0391C579.156 16.1641 579.078 16.2578 578.953 16.3203C578.836 16.3906 578.703 16.4258 578.555 16.4258C578.336 16.4258 578.141 16.3672 577.969 16.25C577.797 16.1328 577.711 15.9805 577.711 15.793C577.711 15.7695 577.719 15.7188 577.734 15.6406L578.613 12.2773H576.738C576.473 12.2773 576.281 12.2148 576.164 12.0898C576.055 11.957 576 11.7383 576 11.4336C576 11.1289 576.055 10.9141 576.164 10.7891C576.281 10.6562 576.473 10.5898 576.738 10.5898H579.047L579.797 7.71875H577.559C577.293 7.71875 577.102 7.65625 576.984 7.53125C576.875 7.39844 576.82 7.17969 576.82 6.875C576.82 6.57031 576.875 6.35547 576.984 6.23047C577.102 6.09766 577.293 6.03125 577.559 6.03125H580.23L581.18 2.38672C581.211 2.26172 581.285 2.16797 581.402 2.10547C581.527 2.03516 581.664 2 581.812 2C582.031 2 582.227 2.05859 582.398 2.17578C582.57 2.29297 582.656 2.44531 582.656 2.63281C582.656 2.65625 582.648 2.70703 582.633 2.78516L581.789 6.03125H584.848L585.797 2.38672C585.828 2.26172 585.902 2.16797 586.02 2.10547C586.145 2.03516 586.281 2 586.43 2C586.648 2 586.844 2.05859 587.016 2.17578C587.188 2.29297 587.273 2.44531 587.273 2.63281C587.273 2.65625 587.266 2.70703 587.25 2.78516L586.406 6.03125H588.246ZM583.664 10.5898L584.414 7.71875H581.355L580.605 10.5898H583.664Z" fill="black"/>
</g>
<g id="P-">
<rect id="top_key_34" x="118.5" y="24.5" width="41" height="81" rx="3.5" stroke="black"/>
<path id="P_3" d="M139.148 58C140.188 58 141.078 58.1836 141.82 58.5508C142.562 58.918 143.125 59.4375 143.508 60.1094C143.898 60.7812 144.094 61.5586 144.094 62.4414C144.094 63.3242 143.898 64.0977 143.508 64.7617C143.125 65.418 142.562 65.9297 141.82 66.2969C141.078 66.6562 140.188 66.8359 139.148 66.8359H136.395V70.3164H139.207C139.473 70.3164 139.66 70.3789 139.77 70.5039C139.887 70.6211 139.945 70.8242 139.945 71.1133C139.945 71.4023 139.887 71.6094 139.77 71.7344C139.66 71.8516 139.473 71.9102 139.207 71.9102H132.738C132.473 71.9102 132.281 71.8516 132.164 71.7344C132.055 71.6094 132 71.4023 132 71.1133C132 70.8242 132.055 70.6211 132.164 70.5039C132.281 70.3789 132.473 70.3164 132.738 70.3164H134.637V59.5938H132.738C132.473 59.5938 132.281 59.5352 132.164 59.418C132.055 59.293 132 59.0859 132 58.7969C132 58.5078 132.055 58.3047 132.164 58.1875C132.281 58.0625 132.473 58 132.738 58H139.148ZM136.395 65.2422H138.902C139.988 65.2422 140.816 64.9961 141.387 64.5039C141.957 64.0117 142.242 63.3242 142.242 62.4414C142.242 61.543 141.953 60.8438 141.375 60.3438C140.805 59.8438 139.98 59.5938 138.902 59.5938H136.395V65.2422Z" fill="black"/>
</g>
<g id="H-">
<rect id="top_key_35" x="178.5" y="24.5" width="41" height="81" rx="3.5" stroke="black"/>
<path id="H_2" d="M203.777 58C204.043 58 204.23 58.0625 204.34 58.1875C204.457 58.3047 204.516 58.5078 204.516 58.7969C204.516 59.0859 204.457 59.293 204.34 59.418C204.23 59.5352 204.043 59.5938 203.777 59.5938H202.934V70.3164H203.777C204.043 70.3164 204.23 70.3789 204.34 70.5039C204.457 70.6211 204.516 70.8242 204.516 71.1133C204.516 71.4023 204.457 71.6094 204.34 71.7344C204.23 71.8516 204.043 71.9102 203.777 71.9102H200.098C199.832 71.9102 199.641 71.8516 199.523 71.7344C199.414 71.6094 199.359 71.4023 199.359 71.1133C199.359 70.8242 199.414 70.6211 199.523 70.5039C199.641 70.3789 199.832 70.3164 200.098 70.3164H201.176V65.5352H195.34V70.3164H196.418C196.684 70.3164 196.871 70.3789 196.98 70.5039C197.098 70.6211 197.156 70.8242 197.156 71.1133C197.156 71.4023 197.098 71.6094 196.98 71.7344C196.871 71.8516 196.684 71.9102 196.418 71.9102H192.738C192.473 71.9102 192.281 71.8516 192.164 71.7344C192.055 71.6094 192 71.4023 192 71.1133C192 70.8242 192.055 70.6211 192.164 70.5039C192.281 70.3789 192.473 70.3164 192.738 70.3164H193.582V59.5938H192.738C192.473 59.5938 192.281 59.5352 192.164 59.418C192.055 59.293 192 59.0859 192 58.7969C192 58.5078 192.055 58.3047 192.164 58.1875C192.281 58.0625 192.473 58 192.738 58H196.418C196.684 58 196.871 58.0625 196.98 58.1875C197.098 58.3047 197.156 58.5078 197.156 58.7969C197.156 59.0859 197.098 59.293 196.98 59.418C196.871 59.5352 196.684 59.5938 196.418 59.5938H195.34V63.9414H201.176V59.5938H200.098C199.832 59.5938 199.641 59.5352 199.523 59.418C199.414 59.293 199.359 59.0859 199.359 58.7969C199.359 58.5078 199.414 58.3047 199.523 58.1875C199.641 58.0625 199.832 58 200.098 58H203.777Z" fill="black"/>
</g>
<g id="*">
<g id="asterisk_r">
<mask id="path-87-inside-9_3_2" fill="white">
<path d="M459 24C461.209 24 463 25.7909 463 28V169C463 171.209 461.209 173 459 173H455L454.993 173.542C454.706 184.889 445.417 194 434 194C422.402 194 413 184.598 413 173V28C413 25.7909 414.791 24 417 24H459Z"/>
</mask>
<path d="M459 24C461.209 24 463 25.7909 463 28V169C463 171.209 461.209 173 459 173H455L454.993 173.542C454.706 184.889 445.417 194 434 194C422.402 194 413 184.598 413 173V28C413 25.7909 414.791 24 417 24H459Z" stroke="black" stroke-width="2" mask="url(#path-87-inside-9_3_2)"/>
</g>
<g id="asterisk_l">
<mask id="path-88-inside-10_3_2" fill="white">
<path d="M276 24C278.209 24 280 25.7909 280 28V173C280 184.598 270.598 194 259 194C247.583 194 238.294 184.889 238.007 173.542L238 173H234C231.791 173 230 171.209 230 169V28C230 25.7909 231.791 24 234 24H276Z"/>
</mask>
<path d="M276 24C278.209 24 280 25.7909 280 28V173C280 184.598 270.598 194 259 194C247.583 194 238.294 184.889 238.007 173.542L238 173H234C231.791 173 230 171.209 230 169V28C230 25.7909 231.791 24 234 24H276Z" stroke="black" stroke-width="2" mask="url(#path-88-inside-10_3_2)"/>
</g>
<path id="*_3" d="M254.957 104C255.316 104 255.582 104.094 255.754 104.281C255.934 104.469 256.004 104.727 255.965 105.055L255.543 108.336L258.543 106.918C258.723 106.84 258.879 106.801 259.012 106.801C259.199 106.801 259.363 106.867 259.504 107C259.652 107.125 259.766 107.309 259.844 107.551C259.891 107.699 259.914 107.844 259.914 107.984C259.914 108.203 259.848 108.387 259.715 108.535C259.582 108.684 259.391 108.781 259.141 108.828L255.883 109.449L258.18 111.887C258.375 112.082 258.473 112.293 258.473 112.52C258.473 112.809 258.309 113.07 257.98 113.305C257.746 113.469 257.527 113.551 257.324 113.551C256.996 113.551 256.734 113.371 256.539 113.012L254.957 110.141L253.375 113.012C253.18 113.371 252.918 113.551 252.59 113.551C252.387 113.551 252.168 113.469 251.934 113.305C251.605 113.07 251.441 112.809 251.441 112.52C251.441 112.293 251.539 112.082 251.734 111.887L254.008 109.449L250.773 108.828C250.523 108.781 250.332 108.684 250.199 108.535C250.066 108.387 250 108.203 250 107.984C250 107.844 250.023 107.699 250.07 107.551C250.148 107.309 250.258 107.125 250.398 107C250.547 106.867 250.715 106.801 250.902 106.801C251.035 106.801 251.191 106.84 251.371 106.918L254.371 108.336L253.949 105.055C253.941 105.016 253.938 104.957 253.938 104.879C253.938 104.605 254.023 104.391 254.195 104.234C254.375 104.078 254.629 104 254.957 104Z" fill="black"/>
<path id="*_4" d="M437.957 104C438.316 104 438.582 104.094 438.754 104.281C438.934 104.469 439.004 104.727 438.965 105.055L438.543 108.336L441.543 106.918C441.723 106.84 441.879 106.801 442.012 106.801C442.199 106.801 442.363 106.867 442.504 107C442.652 107.125 442.766 107.309 442.844 107.551C442.891 107.699 442.914 107.844 442.914 107.984C442.914 108.203 442.848 108.387 442.715 108.535C442.582 108.684 442.391 108.781 442.141 108.828L438.883 109.449L441.18 111.887C441.375 112.082 441.473 112.293 441.473 112.52C441.473 112.809 441.309 113.07 440.98 113.305C440.746 113.469 440.527 113.551 440.324 113.551C439.996 113.551 439.734 113.371 439.539 113.012L437.957 110.141L436.375 113.012C436.18 113.371 435.918 113.551 435.59 113.551C435.387 113.551 435.168 113.469 434.934 113.305C434.605 113.07 434.441 112.809 434.441 112.52C434.441 112.293 434.539 112.082 434.734 111.887L437.008 109.449L433.773 108.828C433.523 108.781 433.332 108.684 433.199 108.535C433.066 108.387 433 108.203 433 107.984C433 107.844 433.023 107.699 433.07 107.551C433.148 107.309 433.258 107.125 433.398 107C433.547 106.867 433.715 106.801 433.902 106.801C434.035 106.801 434.191 106.84 434.371 106.918L437.371 108.336L436.949 105.055C436.941 105.016 436.938 104.957 436.938 104.879C436.938 104.605 437.023 104.391 437.195 104.234C437.375 104.078 437.629 104 437.957 104Z" fill="black"/>
</g>
<g id="-L">
<rect id="top_key_36" x="592.5" y="24.5" width="41" height="81" rx="3.5" stroke="black"/>
<path id="L_2" d="M614.23 58C614.496 58 614.684 58.0625 614.793 58.1875C614.91 58.3047 614.969 58.5078 614.969 58.7969C614.969 59.0859 614.91 59.293 614.793 59.418C614.684 59.5352 614.496 59.5938 614.23 59.5938H611.395V70.3164H617.195V66.4609C617.195 66.1875 617.262 65.9922 617.395 65.875C617.527 65.7578 617.754 65.6992 618.074 65.6992C618.395 65.6992 618.621 65.7578 618.754 65.875C618.887 65.9922 618.953 66.1875 618.953 66.4609V71.1133C618.953 71.4023 618.895 71.6094 618.777 71.7344C618.668 71.8516 618.48 71.9102 618.215 71.9102H607.738C607.473 71.9102 607.281 71.8516 607.164 71.7344C607.055 71.6094 607 71.4023 607 71.1133C607 70.8242 607.055 70.6211 607.164 70.5039C607.281 70.3789 607.473 70.3164 607.738 70.3164H609.637V59.5938H607.738C607.473 59.5938 607.281 59.5352 607.164 59.418C607.055 59.293 607 59.0859 607 58.7969C607 58.5078 607.055 58.3047 607.164 58.1875C607.281 58.0625 607.473 58 607.738 58H614.23Z" fill="black"/>
</g>
<g id="-P">
<rect id="top_key_37" x="532.5" y="24.5" width="41" height="81" rx="3.5" stroke="black"/>
<path id="P_4" d="M554.148 58C555.188 58 556.078 58.1836 556.82 58.5508C557.562 58.918 558.125 59.4375 558.508 60.1094C558.898 60.7812 559.094 61.5586 559.094 62.4414C559.094 63.3242 558.898 64.0977 558.508 64.7617C558.125 65.418 557.562 65.9297 556.82 66.2969C556.078 66.6562 555.188 66.8359 554.148 66.8359H551.395V70.3164H554.207C554.473 70.3164 554.66 70.3789 554.77 70.5039C554.887 70.6211 554.945 70.8242 554.945 71.1133C554.945 71.4023 554.887 71.6094 554.77 71.7344C554.66 71.8516 554.473 71.9102 554.207 71.9102H547.738C547.473 71.9102 547.281 71.8516 547.164 71.7344C547.055 71.6094 547 71.4023 547 71.1133C547 70.8242 547.055 70.6211 547.164 70.5039C547.281 70.3789 547.473 70.3164 547.738 70.3164H549.637V59.5938H547.738C547.473 59.5938 547.281 59.5352 547.164 59.418C547.055 59.293 547 59.0859 547 58.7969C547 58.5078 547.055 58.3047 547.164 58.1875C547.281 58.0625 547.473 58 547.738 58H554.148ZM551.395 65.2422H553.902C554.988 65.2422 555.816 64.9961 556.387 64.5039C556.957 64.0117 557.242 63.3242 557.242 62.4414C557.242 61.543 556.953 60.8438 556.375 60.3438C555.805 59.8438 554.98 59.5938 553.902 59.5938H551.395V65.2422Z" fill="black"/>
</g>
<g id="-F">
<rect id="top_key_38" x="473.5" y="24.5" width="41" height="81" rx="3.5" stroke="black"/>
<path id="F_2" d="M499.332 58C499.598 58 499.785 58.0625 499.895 58.1875C500.012 58.3047 500.07 58.5078 500.07 58.7969V61.8906C500.07 62.1641 500.004 62.3594 499.871 62.4766C499.738 62.5938 499.512 62.6523 499.191 62.6523C498.871 62.6523 498.645 62.5938 498.512 62.4766C498.379 62.3594 498.312 62.1641 498.312 61.8906V59.5938H492.043V64.1758H495.02V63.1094C495.02 62.8359 495.078 62.6406 495.195 62.5234C495.32 62.4062 495.539 62.3477 495.852 62.3477C496.164 62.3477 496.379 62.4062 496.496 62.5234C496.621 62.6406 496.684 62.8359 496.684 63.1094V66.8359C496.684 67.1094 496.621 67.3047 496.496 67.4219C496.379 67.5391 496.164 67.5977 495.852 67.5977C495.539 67.5977 495.32 67.5391 495.195 67.4219C495.078 67.3047 495.02 67.1094 495.02 66.8359V65.7695H492.043V70.3164H494.762C495.027 70.3164 495.215 70.3789 495.324 70.5039C495.441 70.6211 495.5 70.8242 495.5 71.1133C495.5 71.4023 495.441 71.6094 495.324 71.7344C495.215 71.8516 495.027 71.9102 494.762 71.9102H488.738C488.473 71.9102 488.281 71.8516 488.164 71.7344C488.055 71.6094 488 71.4023 488 71.1133C488 70.8242 488.055 70.6211 488.164 70.5039C488.281 70.3789 488.473 70.3164 488.738 70.3164H490.285V59.5938H488.738C488.473 59.5938 488.281 59.5352 488.164 59.418C488.055 59.293 488 59.0859 488 58.7969C488 58.5078 488.055 58.3047 488.164 58.1875C488.281 58.0625 488.473 58 488.738 58H499.332Z" fill="black"/>
</g>
<g id="-T">
<rect id="top_key_39" x="650.5" y="24.5" width="41" height="81" rx="3.5" stroke="black"/>
<path id="T_4" d="M675.793 58C676.059 58 676.246 58.0625 676.355 58.1875C676.473 58.3047 676.531 58.5078 676.531 58.7969V63.2148C676.531 63.4883 676.465 63.6836 676.332 63.8008C676.199 63.918 675.973 63.9766 675.652 63.9766C675.332 63.9766 675.105 63.918 674.973 63.8008C674.84 63.6836 674.773 63.4883 674.773 63.2148V59.5938H671.645V70.3164H674.41C674.676 70.3164 674.863 70.3789 674.973 70.5039C675.09 70.6211 675.148 70.8242 675.148 71.1133C675.148 71.4023 675.09 71.6094 674.973 71.7344C674.863 71.8516 674.676 71.9102 674.41 71.9102H667.121C666.855 71.9102 666.664 71.8516 666.547 71.7344C666.438 71.6094 666.383 71.4023 666.383 71.1133C666.383 70.8242 666.438 70.6211 666.547 70.5039C666.664 70.3789 666.855 70.3164 667.121 70.3164H669.887V59.5938H666.758V63.2148C666.758 63.4883 666.691 63.6836 666.559 63.8008C666.426 63.918 666.199 63.9766 665.879 63.9766C665.559 63.9766 665.332 63.918 665.199 63.8008C665.066 63.6836 665 63.4883 665 63.2148V58.7969C665 58.5078 665.055 58.3047 665.164 58.1875C665.281 58.0625 665.473 58 665.738 58H675.793Z" fill="black"/>
</g>
<g id="-R">
<path id="top_key_40" d="M477 112.5H511C512.933 112.5 514.5 114.067 514.5 116V173C514.5 184.322 505.322 193.5 494 193.5C482.678 193.5 473.5 184.322 473.5 173V116C473.5 114.067 475.067 112.5 477 112.5Z" stroke="black"/>
<path id="R_4" d="M494.668 146C495.645 146 496.48 146.164 497.176 146.492C497.879 146.82 498.41 147.281 498.77 147.875C499.137 148.469 499.32 149.16 499.32 149.949C499.32 150.84 499.031 151.594 498.453 152.211C497.875 152.828 497.082 153.25 496.074 153.477C496.512 153.648 496.875 153.926 497.164 154.309C497.406 154.629 497.613 154.949 497.785 155.27C497.957 155.582 498.148 155.969 498.359 156.43C498.578 156.906 498.746 157.254 498.863 157.473C499.168 158.035 499.52 158.316 499.918 158.316H500.246C500.512 158.316 500.699 158.379 500.809 158.504C500.926 158.621 500.984 158.824 500.984 159.113C500.984 159.402 500.926 159.609 500.809 159.734C500.699 159.852 500.512 159.91 500.246 159.91H499.402C498.934 159.91 498.535 159.789 498.207 159.547C497.887 159.297 497.574 158.875 497.27 158.281C497.098 157.938 496.887 157.484 496.637 156.922C496.402 156.406 496.211 156.008 496.062 155.727C495.922 155.438 495.75 155.152 495.547 154.871C495.312 154.543 495.031 154.297 494.703 154.133C494.375 153.961 493.98 153.875 493.52 153.875H491.926V158.316H493.449C493.715 158.316 493.902 158.379 494.012 158.504C494.129 158.621 494.188 158.824 494.188 159.113C494.188 159.402 494.129 159.609 494.012 159.734C493.902 159.852 493.715 159.91 493.449 159.91H488.738C488.473 159.91 488.281 159.852 488.164 159.734C488.055 159.609 488 159.402 488 159.113C488 158.824 488.055 158.621 488.164 158.504C488.281 158.379 488.473 158.316 488.738 158.316H490.168V147.594H488.738C488.473 147.594 488.281 147.535 488.164 147.418C488.055 147.293 488 147.086 488 146.797C488 146.508 488.055 146.305 488.164 146.188C488.281 146.062 488.473 146 488.738 146H494.668ZM491.926 152.281H494.305C496.414 152.281 497.469 151.504 497.469 149.949C497.469 149.199 497.203 148.621 496.672 148.215C496.141 147.801 495.391 147.594 494.422 147.594H491.926V152.281Z" fill="black"/>
</g>
<g id="-B">
<path id="top_key_41" d="M536 112.5H570C571.933 112.5 573.5 114.067 573.5 116V173C573.5 184.322 564.322 193.5 553 193.5C541.678 193.5 532.5 184.322 532.5 173V116C532.5 114.067 534.067 112.5 536 112.5Z" stroke="black"/>
<path id="B_2" d="M553.609 146C554.523 146 555.301 146.156 555.941 146.469C556.582 146.781 557.062 147.223 557.383 147.793C557.711 148.355 557.875 149.016 557.875 149.773C557.875 150.367 557.738 150.895 557.465 151.355C557.199 151.809 556.816 152.18 556.316 152.469C557.145 152.734 557.777 153.164 558.215 153.758C558.66 154.344 558.883 155.07 558.883 155.938C558.883 156.758 558.707 157.465 558.355 158.059C558.004 158.652 557.492 159.109 556.82 159.43C556.148 159.75 555.336 159.91 554.383 159.91H547.738C547.473 159.91 547.281 159.852 547.164 159.734C547.055 159.609 547 159.402 547 159.113C547 158.824 547.055 158.621 547.164 158.504C547.281 158.379 547.473 158.316 547.738 158.316H549.168V147.594H547.738C547.473 147.594 547.281 147.535 547.164 147.418C547.055 147.293 547 147.086 547 146.797C547 146.508 547.055 146.305 547.164 146.188C547.281 146.062 547.473 146 547.738 146H553.609ZM550.926 151.93H553.352C554.25 151.93 554.93 151.742 555.391 151.367C555.852 150.992 556.082 150.461 556.082 149.773C556.082 149.055 555.855 148.512 555.402 148.145C554.949 147.777 554.266 147.594 553.352 147.594H550.926V151.93ZM550.926 158.316H554.031C554.992 158.316 555.73 158.109 556.246 157.695C556.77 157.281 557.031 156.695 557.031 155.938C557.031 154.328 556.051 153.523 554.09 153.523H550.926V158.316Z" fill="black"/>
</g>
<g id="-G">
<path id="top_key_42" d="M596 112.41H630C631.933 112.41 633.5 113.977 633.5 115.91V172.91C633.5 184.232 624.322 193.41 613 193.41C601.678 193.41 592.5 184.232 592.5 172.91V115.91C592.5 113.977 594.067 112.41 596 112.41Z" stroke="black"/>
<path id="G_2" d="M617.418 145.91C617.738 145.91 617.965 145.969 618.098 146.086C618.23 146.203 618.297 146.398 618.297 146.672V150.07C618.297 150.344 618.23 150.539 618.098 150.656C617.965 150.773 617.738 150.832 617.418 150.832C617.098 150.832 616.871 150.773 616.738 150.656C616.605 150.539 616.539 150.344 616.539 150.07C616.539 149.602 616.41 149.184 616.152 148.816C615.902 148.449 615.531 148.164 615.039 147.961C614.547 147.75 613.961 147.645 613.281 147.645C612.414 147.645 611.645 147.867 610.973 148.312C610.309 148.758 609.789 149.395 609.414 150.223C609.039 151.051 608.852 152.02 608.852 153.129C608.852 154.238 609.027 155.207 609.379 156.035C609.738 156.855 610.242 157.488 610.891 157.934C611.547 158.379 612.305 158.602 613.164 158.602C614.531 158.602 615.699 158.379 616.668 157.934V155.273H613.773C613.508 155.273 613.316 155.215 613.199 155.098C613.09 154.973 613.035 154.766 613.035 154.477C613.035 154.188 613.09 153.984 613.199 153.867C613.316 153.742 613.508 153.68 613.773 153.68H618.801C619.066 153.68 619.254 153.742 619.363 153.867C619.48 153.984 619.539 154.188 619.539 154.477C619.539 154.766 619.48 154.973 619.363 155.098C619.254 155.215 619.066 155.273 618.801 155.273H618.426V158.402C618.426 158.785 618.285 159.055 618.004 159.211C617.363 159.578 616.625 159.859 615.789 160.055C614.953 160.242 614.078 160.336 613.164 160.336C611.945 160.336 610.867 160.039 609.93 159.445C609 158.844 608.277 158 607.762 156.914C607.254 155.82 607 154.559 607 153.129C607 151.707 607.262 150.449 607.785 149.355C608.316 148.262 609.047 147.414 609.977 146.812C610.914 146.211 611.977 145.91 613.164 145.91C613.898 145.91 614.547 146.027 615.109 146.262C615.68 146.488 616.156 146.816 616.539 147.246V146.672C616.539 146.398 616.605 146.203 616.738 146.086C616.871 145.969 617.098 145.91 617.418 145.91Z" fill="black"/>
</g>
<g id="-S">
<path id="top_key_43" d="M654 112.5H688C689.933 112.5 691.5 114.067 691.5 116V173C691.5 184.322 682.322 193.5 671 193.5C659.678 193.5 650.5 184.322 650.5 173V116C650.5 114.067 652.067 112.5 654 112.5Z" stroke="black"/>
<path id="S_6" d="M675.199 146C675.52 146 675.746 146.059 675.879 146.176C676.012 146.293 676.078 146.488 676.078 146.762V149.457C676.078 149.73 676.012 149.926 675.879 150.043C675.746 150.16 675.52 150.219 675.199 150.219C674.902 150.219 674.699 150.117 674.59 149.914C674.215 149.203 673.688 148.664 673.008 148.297C672.328 147.922 671.555 147.734 670.688 147.734C669.828 147.734 669.16 147.934 668.684 148.332C668.215 148.73 667.98 149.266 667.98 149.938C667.98 150.258 668.062 150.527 668.227 150.746C668.391 150.965 668.625 151.152 668.93 151.309C669.203 151.449 669.523 151.566 669.891 151.66C670.258 151.746 670.75 151.848 671.367 151.965C672.039 152.098 672.57 152.211 672.961 152.305C673.359 152.391 673.75 152.512 674.133 152.668C674.914 152.988 675.523 153.438 675.961 154.016C676.406 154.586 676.629 155.359 676.629 156.336C676.629 157.148 676.438 157.863 676.055 158.48C675.672 159.09 675.105 159.566 674.355 159.91C673.613 160.254 672.719 160.426 671.672 160.426C670.891 160.426 670.164 160.285 669.492 160.004C668.828 159.715 668.25 159.297 667.758 158.75V159.664C667.758 159.938 667.691 160.133 667.559 160.25C667.426 160.367 667.199 160.426 666.879 160.426C666.559 160.426 666.332 160.367 666.199 160.25C666.066 160.133 666 159.938 666 159.664V156.148C666 155.875 666.066 155.68 666.199 155.562C666.332 155.445 666.559 155.387 666.879 155.387C667.215 155.387 667.441 155.551 667.559 155.879C667.879 156.785 668.387 157.48 669.082 157.965C669.785 158.449 670.648 158.691 671.672 158.691C672.672 158.691 673.438 158.477 673.969 158.047C674.508 157.617 674.777 157.047 674.777 156.336C674.777 155.844 674.652 155.445 674.402 155.141C674.16 154.828 673.805 154.57 673.336 154.367C673.039 154.234 672.715 154.129 672.363 154.051C672.012 153.965 671.531 153.859 670.922 153.734C670.281 153.609 669.742 153.492 669.305 153.383C668.875 153.273 668.477 153.137 668.109 152.973C667.484 152.691 666.996 152.312 666.645 151.836C666.301 151.352 666.129 150.719 666.129 149.938C666.129 149.133 666.32 148.434 666.703 147.84C667.094 147.246 667.633 146.793 668.32 146.48C669.016 146.16 669.805 146 670.688 146C671.375 146 672.039 146.133 672.68 146.398C673.32 146.664 673.867 147.023 674.32 147.477V146.762C674.32 146.488 674.387 146.293 674.52 146.176C674.652 146.059 674.879 146 675.199 146Z" fill="black"/>
</g>
<g id="-Z">
<g id="top_key_44">
<mask id="path-107-inside-11_3_2" fill="white">
<path d="M746 112C748.209 112 750 113.791 750 116V173C750 184.598 740.598 194 729 194C717.402 194 708 184.598 708 173H702C699.791 173 698 171.209 698 169V116C698 113.791 699.791 112 702 112H746Z"/>
</mask>
<path d="M746 112C748.209 112 750 113.791 750 116V173C750 184.598 740.598 194 729 194C717.402 194 708 184.598 708 173H702C699.791 173 698 171.209 698 169V116C698 113.791 699.791 112 702 112H746Z" stroke="black" stroke-width="2" mask="url(#path-107-inside-11_3_2)"/>
</g>
<path id="Z_2" d="M733.609 146C733.875 146 734.062 146.062 734.172 146.188C734.289 146.305 734.348 146.508 734.348 146.797C734.348 146.992 734.309 147.145 734.23 147.254L726.461 158.316H732.695V155.164C732.695 154.891 732.762 154.695 732.895 154.578C733.027 154.461 733.254 154.402 733.574 154.402C733.895 154.402 734.121 154.461 734.254 154.578C734.387 154.695 734.453 154.891 734.453 155.164V159.113C734.453 159.402 734.395 159.609 734.277 159.734C734.168 159.852 733.98 159.91 733.715 159.91H724.738C724.473 159.91 724.281 159.852 724.164 159.734C724.055 159.609 724 159.402 724 159.113C724 158.941 724.055 158.773 724.164 158.609L731.887 147.594H726.004V150.512C726.004 150.785 725.938 150.98 725.805 151.098C725.672 151.215 725.445 151.273 725.125 151.273C724.805 151.273 724.578 151.215 724.445 151.098C724.312 150.98 724.246 150.785 724.246 150.512V146.797C724.246 146.508 724.301 146.305 724.41 146.188C724.527 146.062 724.719 146 724.984 146H733.609Z" fill="black"/>
</g>
<g id="-D">
<rect id="top_key_45" x="698.5" y="24.5" width="51" height="81" rx="3.5" stroke="black"/>
<path id="D_2" d="M729.649 58C730.853 58 731.91 58.2812 732.823 58.8438C733.735 59.3984 734.44 60.2031 734.938 61.2578C735.444 62.3047 735.697 63.5391 735.697 64.9609C735.697 66.3828 735.444 67.6172 734.938 68.6641C734.44 69.7109 733.735 70.5156 732.823 71.0781C731.91 71.6328 730.853 71.9102 729.649 71.9102H724.234C723.973 71.9102 723.785 71.8516 723.67 71.7344C723.563 71.6094 723.509 71.4023 723.509 71.1133C723.509 70.8242 723.563 70.6211 723.67 70.5039C723.785 70.3789 723.973 70.3164 724.234 70.3164H725.522V59.5938H724.234C723.973 59.5938 723.785 59.5352 723.67 59.418C723.563 59.293 723.509 59.0859 723.509 58.7969C723.509 58.5078 723.563 58.3047 723.67 58.1875C723.785 58.0625 723.973 58 724.234 58H729.649ZM727.246 70.3164H729.385C730.297 70.3164 731.09 70.1133 731.765 69.707C732.439 69.293 732.961 68.6875 733.328 67.8906C733.696 67.0859 733.88 66.1094 733.88 64.9609C733.88 63.8125 733.696 62.8398 733.328 62.043C732.961 61.2383 732.439 60.6289 731.765 60.2148C731.09 59.8008 730.297 59.5938 729.385 59.5938H727.246V70.3164Z" fill="black"/>
</g>
</g>
</g>
</svg>
